<svg xmlns:svg="http://www.w3.org/2000/svg" xmlns="http://www.w3.org/2000/svg" width="210" height="297" viewBox="0 0 744 1052" id="svg2" version="1"><style>.s0{fill:#000;}.s1{fill:#000;opacity:0.6;}</style><defs id="defs4"/><metadata id="metadata7"/><g id="layer1"><circle id="path4193" cx="383" cy="404" r="331" style="fill:#00f;opacity:0.3"/><g id="g4195" transform="translate(4.285966,2.8571327)" fill="#000007"><g id="g4178" fill="#000"><circle id="path4136" cx="357" cy="327" r="91" class="s1"/><path d="m357 424a160 106 0 0 0-160 106 160 106 0 0 0 1 9l319 0a160 106 0 0 0 1-9 160 106 0 0 0-160-106z" id="path4138" class="s1"/><g id="g4174" transform="translate(2.8571429,2.8571429)" fill="#000"><rect y="392" x="511" height="143" width="40" id="rect4170" class="s1"/><rect y="358" x="511" height="34" width="86" id="rect4172" class="s1"/></g></g><flowRoot transform="matrix(1.3003813,0,0,1.2939432,-96.39953,-156.78371)" id="flowRoot4185" xml:space="preserve" style="fill:#fff;font-family:sans-serif;font-size:40;letter-spacing:0;line-height:125;word-spacing:0"><flowRegion id="flowRegion4187"><rect y="484" x="403" height="46" width="43" id="rect4189" fill="#fff"/></flowRegion><flowPara id="flowPara4191" style="-inkscape-font-specification:'sans-serif, Bold';fill:#fff;font-family:sans-serif;font-size:40;font-weight:bold;line-height:125;text-align:start;text-anchor:start;writing-mode:lr-tb">K</flowPara></flowRoot></g></g></svg>