<svg xmlns:svg="http://www.w3.org/2000/svg" xmlns="http://www.w3.org/2000/svg" width="210" height="297" viewBox="0 0 744.09 1052.36" id="svg4274" version="1.1"><defs id="defs4276"/><metadata id="metadata4279"/><g id="layer1"><circle id="path4849" cx="400" cy="592.36" r="322.86" style="fill:#ff0;opacity:0.31"/><g id="g4845" transform="matrix(1.0594111,0,0,0.79166626,-14.084089,164.12285)" fill="#00005f"><path id="rect4822" d="m317.14 452.36c18.79-57.98 45.47-160.24 88.57-117.14 108.42 108.42 77.14 480 77.14 480l-182.86 0c0 0-19.85-248.72 17.14-362.86z" style="fill:#00005f;opacity:0.31"/><path id="path4827" d="m390.85 266.65a60 80 0 0 0-57.45 57.14l114.92 0a60 80 0 0 0-57.47-57.14z" style="fill:#00005f;opacity:0.31"/></g><g transform="matrix(1.7281972,0,0,1.4275537,-283.52685,-330.04139)" id="flowRoot4837" style="fill:#fff;font-family:sans-serif;font-size:40;letter-spacing:0;line-height:125;word-spacing:0"><path d="m405.05 738.52 10.34 0 0 14.64 14.9-14.64 12 0-19.31 18.99 21.3 21.11-12.94 0-15.95-15.79 0 15.79-10.34 0 0-40.1z" id="path4142" style="-inkscape-font-specification:'sans-serif, Bold';fill:#fff;font-family:sans-serif;font-size:55;font-weight:bold;line-height:125;text-align:start;text-anchor:start;writing-mode:lr-tb"/></g></g></svg>