<?xml version="1.0" standalone="no"?>
<!DOCTYPE svg PUBLIC "-//W3C//DTD SVG 20010904//EN"
 "http://www.w3.org/TR/2001/REC-SVG-20010904/DTD/svg10.dtd">
<svg version="1.0" xmlns="http://www.w3.org/2000/svg"
 width="16.000000pt" height="16.000000pt" viewBox="0 0 16.000000 16.000000"
 preserveAspectRatio="xMidYMid meet">
<metadata>
Created by potrace 1.11, written by Peter Selinger 2001-2013
</metadata>
<g transform="translate(0.000000,16.000000) scale(0.006154,-0.006154)"
fill="#000000" stroke="none">
<path d="M2061 1750 c-24 -11 -58 -36 -76 -56 -31 -34 -38 -37 -97 -39 -88 -3
-141 -31 -171 -88 l-13 -25 -40 34 c-104 92 -228 135 -373 133 -133 -2 -242
-40 -332 -115 -22 -19 -46 -31 -51 -27 -6 3 -8 1 -5 -4 4 -6 -171 -188 -388
-405 -363 -363 -397 -401 -427 -464 l-33 -69 -3 -199 c-2 -110 -1 -214 3 -233
3 -18 19 -49 36 -67 58 -67 -11 -63 1219 -62 791 1 1122 5 1140 13 36 16 70
51 86 89 20 47 19 422 -1 478 -8 22 -11 44 -8 49 3 6 2 7 -3 4 -6 -3 -16 9
-24 26 -7 17 -49 67 -92 111 -43 43 -78 83 -78 88 0 4 -4 8 -9 8 -12 0 -151
139 -151 151 0 5 -4 9 -8 9 -10 0 -222 209 -222 218 0 4 62 7 138 7 132 1 140
2 185 28 128 75 156 234 61 345 -47 55 -81 72 -157 78 -49 4 -71 1 -106 -16z"/>
</g>
</svg>
