<svg id="Layer_1" xmlns="http://www.w3.org/2000/svg" xmlns:xlink="http://www.w3.org/1999/xlink" width="373" height="164" viewBox="-13 119 373 164"><style>.st0{display:none}.st1{display:inline;stroke:#fff;stroke-miterlimit:10}.st2{clip-path:url(#SVGID_2_);fill:#fff}.st3,.st4{clip-path:url(#SVGID_4_);fill:#fff}.st4{clip-path:url(#SVGID_6_)}.st5,.st6{clip-path:url(#SVGID_8_);fill:#fff}.st6{clip-path:url(#SVGID_10_)}.st7,.st8{clip-path:url(#SVGID_12_);fill:#fff}.st8{clip-path:url(#SVGID_14_)}.st9{clip-path:url(#SVGID_16_)}.st10,.st9{fill:#fff}.st11,.st12{clip-path:url(#SVGID_18_);fill:#fff}.st12{clip-path:url(#SVGID_20_)}.st13,.st14{clip-path:url(#SVGID_22_);fill:#fff}.st14{clip-path:url(#SVGID_24_)}.st15,.st16{clip-path:url(#SVGID_26_);fill:#fff}.st16{clip-path:url(#SVGID_28_)}.st17,.st18{clip-path:url(#SVGID_30_);fill:#fff}.st18{clip-path:url(#SVGID_32_)}.st19,.st20{clip-path:url(#SVGID_34_);fill:#fff}.st20{clip-path:url(#SVGID_36_)}</style><g id="Layer_2" class="st0"><path class="st1" d="M-133 61h614v298h-614z"/></g><g id="Layer_1_1_"><defs><path id="SVGID_1_" d="M-15.7 126h382.4v154H-15.7z"/></defs><clipPath id="SVGID_2_"><use xlink:href="#SVGID_1_" overflow="visible"/></clipPath><path class="st2" d="M115.7 126c.1.2-2 1.7-4.7 3.4s-5.1 2.9-5.2 2.7c-.1-.2 2-1.7 4.7-3.4 2.8-1.7 5.1-2.9 5.2-2.7"/><defs><path id="SVGID_3_" d="M-15.7 126h382.4v154H-15.7z"/></defs><clipPath id="SVGID_4_"><use xlink:href="#SVGID_3_" overflow="visible"/></clipPath><path class="st3" d="M181.7 211.3c-1.8-.1-3.2-.4-4.7-.4-1.7 0-3.2.2-4.7.4v-10.1c-3.8 7.2-10.5 11.1-18.8 11.1-13 0-19.5-6.7-19.5-22.7l.1-34c.7 0 7.4-.1 9.5-.2l-.2 31.3c0 12.4 3.7 19.7 14.3 19.7 12 0 14.5-10.6 14.5-19l.2-32.1c1.5.1 3 .7 4.7.7 1.5 0 2.9-.4 4.7-.5l-.1 55.8z"/><defs><path id="SVGID_5_" d="M-15.7 126h382.4v154H-15.7z"/></defs><clipPath id="SVGID_6_"><use xlink:href="#SVGID_5_" overflow="visible"/></clipPath><path class="st4" d="M115.6 126.1l-.1 29.3h18.6c-.4 1.7.7 3 1.1 4.2l-19.7.1.1 28.2c0 7.2-1.1 19.1 8.7 19.1 1.8 0 3.5-.5 5.3-.8v2.8c-3.2 1.2-6.5 2.1-9.9 2.1-9 0-14.2-4.1-13.6-18.5l-.1-32.9-7.4.1c.4-1.5.4-3 .1-4.6l7.3.1.1-23.5 9.5-5.7z"/><defs><path id="SVGID_7_" d="M-15.7 126h382.4v154H-15.7z"/></defs><clipPath id="SVGID_8_"><use xlink:href="#SVGID_7_" overflow="visible"/></clipPath><path class="st5" d="M272.9 164.8c3.9-6.7 9.2-10.9 17.5-10.9 7.7 0 14.8 4.1 17.2 11.7 4.5-7.6 10.5-11.7 18.5-11.7 14.4 0 19 8.4 19 23V211c-1.8-.1-3.2-.4-4.7-.4-1.7 0-3.2.2-4.7.4v-31.3c0-10.5-1.5-19.6-13.1-19.6-11.9 0-13.6 10.6-13.6 19.1v31.9c-1.8-.1-3.2-.4-4.7-.4-1.7 0-3.2.2-4.7.4v-34.6c0-11.1-3.8-16.4-12.5-16.4-12.2 0-14.2 8-14.2 16.7v34.4c-1.8-.1-1.2-.2-2.7-.2"/><defs><path id="SVGID_9_" d="M-15.7 126h382.4v154H-15.7z"/></defs><clipPath id="SVGID_10_"><use xlink:href="#SVGID_9_" overflow="visible"/></clipPath><path class="st6" d="M273.1 211.8c-1.8-.1-3.2-.4-4.7-.4-1.7 0-3.2.2-4.7.4v-10.1c-3.8 7.2-10.5 11.1-18.8 11.1-13 0-19.5-6.7-19.5-22.7v-34.7c1.5.1 3.1.4 4.7.4 1.5 0 3-.2 4.7-.4v31.9c0 12.4 3.7 19.7 14.3 19.7 12 0 14.5-10.6 14.5-19v-32.6c1.5.1 3.1.4 4.7.4 1.5 0 3-.2 4.7-.4v56.4h.1z"/><defs><path id="SVGID_11_" d="M-15.7 126h382.4v154H-15.7z"/></defs><clipPath id="SVGID_12_"><use xlink:href="#SVGID_11_" overflow="visible"/></clipPath><path class="st7" d="M-3.6 154.8c1.5.1 3.1.4 4.7.4 1.5 0 3-.2 4.7-.4v10.7c4.1-7.2 10.6-11.5 19-11.5 13.7 0 19 7.4 19 23v34.1c-1.8-.1-3.2-.4-4.7-.4-1.7 0-3.2.2-4.7.4v-31.3c0-11-2-19.6-13.1-19.6-12.4 0-15.5 9.1-15.5 23.6v27.4c-1.8-.1-3.2-.4-4.7-.4-1.7 0-3.2.2-4.7.4v-56.4z"/><defs><path id="SVGID_13_" d="M-15.7 126h382.4v154H-15.7z"/></defs><clipPath id="SVGID_14_"><use xlink:href="#SVGID_13_" overflow="visible"/></clipPath><path class="st8" d="M84.7 181.8l-4.1.8c-8 1.5-20.1 2.7-20.1 13.5 0 7.4 4.4 11.1 11.6 11.1 3.2 0 7.2-2.2 9.4-4.5.8-.8 3.2-2.8 3.2-3.7v-17.2zm9.4 19.5c0 4.6-.4 7 6.6 5.4v2.6c-.8.4-2.2.9-3.5 1.2-6.1 1.1-11.2.1-12.2-6.9l-1 1.1c-5 5-10.4 7.4-17.5 7.4-8.4 0-15.7-5.7-15.7-14.4 0-13.5 10.7-15.2 21.9-17 9.3-1.5 12.5-2.2 12.5-7.9 0-8.7-5-13.8-13.8-13.8-8.6 0-13.2 5.6-14.1 8.1H56v-6.6c5.7-3.9 12-6.5 19-6.5 12.4 0 19.1 6.5 19.1 19.8v27.5z"/><defs><path id="SVGID_15_" d="M-15.7 126h382.4v154H-15.7z"/></defs><clipPath id="SVGID_16_"><use xlink:href="#SVGID_15_" overflow="visible"/></clipPath><path class="st9" d="M190.7 154.8c1.5.1 3.1.4 4.7.4 1.5 0 3-.2 4.7-.4v11.8l.6-1.4c3.9-6.1 9-11.1 14.9-11.1 1.7 0 2.6.1 3.7.6l-1.7 9.9c-1.8-.5-3.5-1.9-5.6-1.9-2.6 0-5.8.9-7.6 3-4.1 4.7-4.4 8.6-4.4 15v30.6c-1.8-.1-3.2-.4-4.7-.4-1.7 0-3.2.2-4.7.4v-56.5h.1z"/><path class="st10" d="M133.2 155.4h10.4v1.5h-10.4zm-18.7 1.9h21.6v2.4h-21.6zm-7.4 36.5l-.9-.2-.1-20h1z"/><defs><path id="SVGID_17_" d="M-15.7 126h382.4v154H-15.7z"/></defs><clipPath id="SVGID_18_"><use xlink:href="#SVGID_17_" overflow="visible"/></clipPath><path class="st11" d="M348.9 150h1c1 0 1.3-.3 1.3-.9 0-.5-.3-.8-1.2-.8h-1.1v1.7zm0 3h-.8v-5.4h2.1c1.3 0 1.9.5 1.9 1.5s-.6 1.4-1.4 1.5l1.5 2.4h-.9l-1.4-2.3h-.9v2.3h-.1zm1-6.5c-2.2 0-3.8 1.7-3.8 3.9 0 2.3 1.7 3.9 3.8 3.9 2.1 0 3.8-1.6 3.8-3.9s-1.7-3.9-3.8-3.9m0-.8c2.5 0 4.7 2 4.7 4.6 0 2.7-2.2 4.7-4.7 4.7-2.6 0-4.7-2-4.7-4.7 0-2.6 2.1-4.6 4.7-4.6"/><defs><path id="SVGID_19_" d="M-15.7 126h382.4v154H-15.7z"/></defs><clipPath id="SVGID_20_"><use xlink:href="#SVGID_19_" overflow="visible"/></clipPath><path class="st12" d="M-2 261.8c.1-2 .1-4 .1-6.1v-8c0-2 0-4.1-.1-6l-.3-6c.4.1.8.1 1.2.2.4 0 .7.1 1.1.1.4 0 .7 0 1.1-.1.4 0 .8-.1 1.2-.2-.1 2-.2 4.1-.3 6-.1 2-.1 4-.1 6v2.6c0 .2.1.4.3.4.1 0 .3-.1.7-.4 1.1-.9 2.2-2 3.4-3.2 1.2-1.2 2.4-2.4 3.6-3.7l3.6-3.9c1.2-1.3 2.3-2.6 3.4-3.8.3.1.7.1 1 .2.3 0 .6.1.9.1.4 0 .7 0 1.1-.1.4 0 .7-.1 1.1-.2-1.1.9-2.3 2-3.7 3.3-1.4 1.3-2.7 2.6-4.1 3.9s-2.7 2.6-4 3.9c-1.3 1.3-2.3 2.4-3.1 3.4 2.5 2.8 5 5.7 7.6 8.6 2.6 2.9 5.2 5.9 7.8 8.8-.5-.1-.9-.1-1.4-.1h-2.7c-.4 0-.8 0-1.3.1-1.1-1.3-2.4-2.7-3.7-4.4-1.3-1.6-2.7-3.2-4-4.8-1.3-1.5-2.5-2.9-3.5-4.1-1-1.2-1.8-2.1-2.3-2.6-.2-.2-.4-.4-.6-.4-.2 0-.2.1-.2.3v4c0 2 0 4.1.1 6 .1 2 .2 3.9.3 5.9-.7-.1-1.5-.1-2.3-.1s-1.6 0-2.3.1c.2-1.8.3-3.7.4-5.7"/><defs><path id="SVGID_21_" d="M-15.7 126h382.4v154H-15.7z"/></defs><clipPath id="SVGID_22_"><use xlink:href="#SVGID_21_" overflow="visible"/></clipPath><path class="st13" d="M22.8 256.4c.1-1.2.1-2.3.1-3.5v-3.5c0-1.3 0-2.6-.1-3.9.8.2 1.4.3 2 .3.5 0 1.1-.1 1.9-.3-.1 1.9-.3 3.9-.3 6.1-.1 2.2-.1 4.5-.1 6.8 0 1.6.1 2.8.4 3.7.3.9.6 1.5 1 1.9.4.5 1 .9 1.7 1.2s1.4.5 2.3.5c1.3 0 2.4-.3 3.3-.9.9-.6 1.5-1.3 1.9-2.1.2-.5.4-1 .5-1.3.1-.4.2-.9.3-1.5.1-.6.1-1.5.1-2.5v-12c.3.1.7.1 1 .2s.6.1 1 .1c.3 0 .7 0 1-.1s.6-.1.9-.2c-.2 2.4-.3 4.8-.3 7v11.3c0 1.3.1 2.6.1 3.9-.6-.1-1.2-.1-1.8-.1s-1.2 0-1.8.1c0-.3.1-.6.1-.9v-3h-.1c-.8 1.5-1.9 2.6-3.1 3.3-1.3.7-2.7 1-4.2 1-2.4 0-4.3-.6-5.7-1.9s-2.1-3.1-2.1-5.6c-.1-1.6-.1-3 0-4.1"/><defs><path id="SVGID_23_" d="M-15.7 126h382.4v154H-15.7z"/></defs><clipPath id="SVGID_24_"><use xlink:href="#SVGID_23_" overflow="visible"/></clipPath><path class="st14" d="M48.4 242.5c0-1.2 0-2.5-.1-3.7 0-1.2-.1-2.4-.1-3.5s-.1-2-.2-2.8c.9.1 1.6.2 2.1.2s1.2-.1 2.1-.2c-.1.8-.1 1.7-.1 2.8 0 1.1-.1 2.3-.1 3.5s0 2.4-.1 3.7v15.2c0 1.2 0 2.5.1 3.7 0 1.2.1 2.4.1 3.4 0 1.1.1 2 .1 2.7-.7-.1-1.4-.1-2.1-.1-.7 0-1.4 0-2.1.1.1-.7.1-1.6.2-2.7 0-1.1.1-2.2.1-3.4s.1-2.4.1-3.7v-15.2"/><defs><path id="SVGID_25_" d="M-15.7 126h382.4v154H-15.7z"/></defs><clipPath id="SVGID_26_"><use xlink:href="#SVGID_25_" overflow="visible"/></clipPath><path class="st15" d="M59.9 242.5c0-1.2 0-2.5-.1-3.7 0-1.2-.1-2.4-.1-3.5s-.1-2-.2-2.8c.9.1 1.6.2 2.1.2s1.2-.1 2.1-.2c-.1.8-.1 1.7-.1 2.8 0 1.1-.1 2.3-.1 3.5s0 2.4-.1 3.7v15.2c0 1.2 0 2.5.1 3.7 0 1.2.1 2.4.1 3.4 0 1.1.1 2 .1 2.7-.7-.1-1.4-.1-2.1-.1s-1.4 0-2.1.1c.1-.7.1-1.6.2-2.7 0-1.1.1-2.2.1-3.4s.1-2.4.1-3.7v-11.8c.1-1 .1-2.2 0-3.4"/><defs><path id="SVGID_27_" d="M-15.7 126h382.4v154H-15.7z"/></defs><clipPath id="SVGID_28_"><use xlink:href="#SVGID_27_" overflow="visible"/></clipPath><path class="st16" d="M80.4 256.5c-.7.1-1.4.3-2.1.4s-1.4.3-2.1.5-1.3.5-1.9.9c-.5.4-1 .8-1.3 1.4s-.5 1.3-.5 2.1c0 1.5.4 2.6 1.3 3.3.8.7 1.8 1.1 2.8 1.1 1.2 0 2.3-.3 3.2-1 1-.7 1.7-1.4 2.3-2.3l.2-7c-.6.3-1.2.5-1.9.6m-5.8-10.9c1.2-.4 2.4-.6 3.6-.6 1.1 0 2.1.2 3.1.5.9.3 1.7.8 2.4 1.4.6.6 1.2 1.3 1.5 2.2.4.9.6 1.8.6 2.8 0 1.8 0 3.5-.1 5.3-.1 1.8-.1 3.6-.1 5.6v1.2c0 .4.1.8.2 1.1.1.3.3.6.5.8s.6.3 1 .3h.5c.2 0 .3-.1.5-.2v1c-.3.2-.8.3-1.3.4-.5.1-1.1.1-1.7.1-1 0-1.8-.3-2.3-.8s-.8-1.2-.9-2c-1.1 1.1-2.2 1.9-3.3 2.5-1.1.5-2.4.8-4 .8-.8 0-1.5-.1-2.3-.3-.7-.2-1.4-.6-2-1.1s-1-1.1-1.4-1.8-.5-1.5-.5-2.4c0-1.9.6-3.3 1.7-4.3 1.2-1 2.8-1.7 4.8-2 1.7-.3 3-.5 3.9-.7s1.6-.4 2.1-.6c.4-.2.7-.5.8-.8.1-.3.1-.7.1-1.1 0-.8-.1-1.5-.3-2.2-.2-.7-.5-1.3-.9-1.9-.4-.5-.9-1-1.6-1.3s-1.4-.5-2.4-.5c-1.2 0-2.4.3-3.5.8-1.1.6-1.9 1.3-2.4 2.3h-.5v-2.4c1.7-1 3-1.7 4.2-2.1"/><defs><path id="SVGID_29_" d="M-15.7 126h382.4v154H-15.7z"/></defs><clipPath id="SVGID_30_"><use xlink:href="#SVGID_29_" overflow="visible"/></clipPath><path class="st17" d="M107.9 252.1c-.4-1.1-.8-2-1.4-2.8-.6-.7-1.2-1.3-2-1.7s-1.5-.6-2.4-.6c-1 0-1.9.2-2.8.5-.9.4-1.7.9-2.3 1.8-.7.8-1.2 1.9-1.6 3.2s-.6 2.9-.6 4.9c0 6.2 2.3 9.4 6.8 9.4 1 0 1.9-.3 2.7-.8.8-.5 1.5-1.2 2.1-2.2s1.1-2.1 1.4-3.4c.3-1.3.5-2.8.5-4.5.2-1.5 0-2.7-.4-3.8m3.8 8.8c-.5 1.5-1.3 2.8-2.2 3.8-.9 1.1-2.1 1.9-3.4 2.5-1.3.6-2.7.9-4.2.9s-2.8-.3-4-1c-1.2-.6-2.1-1.4-2.7-2.3-1.1.9-2.2 1.8-3.1 2.7h-.8c.1-.7.1-1.6.2-2.7 0-1.1.1-2.2.1-3.4s.1-2.4.1-3.7v-15.2c0-1.2 0-2.5-.1-3.7 0-1.2-.1-2.4-.1-3.5s-.1-2-.2-2.8c.9.1 1.6.2 2.1.2.3 0 .7 0 1.1-.1.4 0 .8-.1 1.2-.2-.1.6-.2 1.6-.2 3-.1 1.4-.1 2.9-.1 4.5 0 1.7-.1 3.4-.1 5.1 0 1.8-.1 3.3-.1 4.8h.1c1.1-1.7 2.2-2.9 3.5-3.7 1.3-.8 2.7-1.2 4.4-1.2 1.6 0 3 .3 4.2.9 1.2.6 2.2 1.4 2.9 2.4.8 1 1.4 2.1 1.7 3.5.4 1.3.6 2.7.6 4.2 0 1.9-.3 3.5-.9 5"/><defs><path id="SVGID_31_" d="M-15.7 126h382.4v154H-15.7z"/></defs><clipPath id="SVGID_32_"><use xlink:href="#SVGID_31_" overflow="visible"/></clipPath><path class="st18" d="M122.6 247.3c-.8.5-1.4 1.2-2 2-.5.8-.9 1.6-1.2 2.6-.3.9-.4 1.8-.5 2.7 1 0 2 .1 3 .1s2.1.1 3.1.1 2.1 0 3.1-.1c1.1 0 2.1-.1 3.1-.1 0-.8-.1-1.7-.2-2.6-.1-.9-.4-1.8-.8-2.6s-1-1.5-1.7-2-1.7-.8-2.9-.8c-1.3 0-2.2.2-3 .7m-5.2 1c1.8-2.2 4.5-3.3 7.9-3.3 1.6 0 3.1.3 4.3.8s2.2 1.2 3 2c.8.9 1.4 1.9 1.8 3 .4 1.1.6 2.4.6 3.7v.9c0 .3 0 .6-.1.9-1.7 0-3.3-.1-5-.1-1.6 0-3.3-.1-5-.1-1 0-2 0-3 .1-1 0-2 .1-3 .1 0 .2-.1.4-.1.7v.6c0 1.2.2 2.4.5 3.4.4 1.1.9 2 1.6 2.7.7.8 1.5 1.4 2.5 1.8 1 .4 2.1.7 3.5.7.6 0 1.3-.1 1.9-.3.6-.2 1.3-.4 1.9-.7.6-.3 1.2-.6 1.7-1.1.5-.4 1-.8 1.4-1.3l.2.1-.3 2.3c-.9.7-2.1 1.4-3.5 1.9s-2.8.8-4.3.8c-1.7 0-3.2-.3-4.6-.8-1.4-.5-2.6-1.3-3.6-2.2-1-1-1.8-2.1-2.3-3.5-.5-1.3-.8-2.8-.8-4.3.1-3.6 1-6.6 2.8-8.8"/><defs><path id="SVGID_33_" d="M-15.7 126h382.4v154H-15.7z"/></defs><clipPath id="SVGID_34_"><use xlink:href="#SVGID_33_" overflow="visible"/></clipPath><path class="st19" d="M148.2 248.8c-.5-.2-.9-.2-1.4-.2-.7 0-1.4.2-2 .5s-1.1.8-1.5 1.4c-.4.6-.7 1.3-.9 2.1s-.3 1.6-.3 2.5v9.9c0 1.1.1 2 .1 2.7-.6-.1-1.2-.1-1.9-.1s-1.3 0-1.9.1c.1-1.1.1-2.5.1-4.3V251c0-1.6-.1-3.4-.1-5.5.3.1.7.1 1 .2.3 0 .6.1 1 .1.3 0 .6 0 .9-.1.3 0 .6-.1 1-.2-.1 1.1-.2 2-.2 2.7v1.9h.1c1.8-3.4 3.9-5 6.1-5h.7c.2 0 .5.1.8.2-.2.4-.2.9-.3 1.7v2.1l-.3.2c-.2-.2-.5-.3-1-.5"/><defs><path id="SVGID_35_" d="M-15.7 126h382.4v154H-15.7z"/></defs><clipPath id="SVGID_36_"><use xlink:href="#SVGID_35_" overflow="visible"/></clipPath><path class="st20" d="M164 247.9c-.9-1-2.2-1.5-3.7-1.5-1.7 0-3 .6-3.9 1.7-.9 1.1-1.4 2.6-1.4 4.5 0 2 .4 3.5 1.3 4.6.9 1.1 2.2 1.7 4 1.7.9 0 1.7-.2 2.3-.5.6-.4 1.2-.8 1.6-1.4.4-.6.7-1.3.9-2.1s.3-1.6.3-2.5c0-2-.5-3.4-1.4-4.5m2.3 20.7c-1.1-.7-2.9-1.1-5.4-1.1-2.3 0-4.1.4-5.4 1.1-1.3.8-1.9 2.1-1.9 4.1 0 1.1.2 2 .5 2.7.4.7.8 1.3 1.4 1.8.6.5 1.3.8 2.2 1 .8.2 1.7.3 2.7.3.9 0 1.8-.1 2.7-.4.9-.2 1.7-.6 2.4-1.1s1.3-1.1 1.7-1.9c.4-.8.7-1.7.7-2.7 0-1.7-.5-3-1.6-3.8m-14.2-19.3c.5-.9 1.1-1.7 1.9-2.4.8-.6 1.8-1.1 2.8-1.4 1.1-.3 2.2-.5 3.4-.5h1.7c.5 0 1.2.1 2.1.1.7.1 1.3.1 1.9.2.6 0 1 .1 1.3.1 1.7 0 3-.1 3.8-.2 0 .2-.1.3-.1.5v1c0 .2 0 .3.1.5-.9-.1-1.8-.1-2.6-.2-.9-.1-1.7-.1-2.5-.2l-.1.1c1 .5 1.7 1.3 2.3 2.4s.9 2.2.9 3.4c0 2.3-.8 4.2-2.3 5.5-1.6 1.3-3.7 2-6.3 2-.4 0-.9 0-1.3-.1-.4 0-.8-.1-1.3-.1-.6 0-1.1.2-1.6.6-.5.4-.7.9-.7 1.5 0 .8.2 1.4.6 1.8.4.4 1.1.6 2.2.6.9 0 1.7.1 2.6.1.8 0 1.7 0 2.6.1 1.4 0 2.6.2 3.7.5 1 .3 1.8.7 2.5 1.3.6.5 1.1 1.1 1.4 1.8.3.7.4 1.4.4 2.2 0 1.1-.2 2.2-.6 3.3-.4 1.1-1.1 2.1-2 3s-2 1.6-3.4 2.2c-1.4.6-3.1.9-5 .9-3 0-5.4-.6-7.1-1.8-1.7-1.2-2.6-2.8-2.6-4.9 0-.8.1-1.6.4-2.2.3-.7.7-1.3 1.1-1.8.5-.5 1-.9 1.6-1.3.6-.3 1.2-.5 1.8-.7v-.1c-1-.3-1.7-.7-2.2-1.4-.5-.6-.8-1.4-.8-2.3 0-.5.1-1 .3-1.4.2-.4.5-.8.8-1.2.3-.3.7-.6 1.1-.8.4-.2.8-.4 1.2-.4v-.1c-1.4-.6-2.5-1.5-3.4-2.6-.8-1.1-1.2-2.6-1.2-4.3-.1-1.3.1-2.4.6-3.3"/></g></svg>