<svg id="Lager_1" xmlns="http://www.w3.org/2000/svg" width="866.028" height="448" viewBox="0 0 866.028198 448"><style>.st0{fill:none}.st1{fill:#e9bf61}.st2{fill:#fff}.st3{fill-rule:evenodd;clip-rule:evenodd;fill:#b50027;stroke:#000;stroke-width:.793688;stroke-miterlimit:3.86369}.st4,.st5{fill:#facb00}.st4{fill-rule:evenodd;clip-rule:evenodd}.st5{stroke:#facb00;stroke-width:.062692;stroke-miterlimit:3.86371}.st5,.st6,.st7{fill-rule:evenodd;clip-rule:evenodd}.st6{stroke:#b50027;stroke-width:.56;stroke-miterlimit:3.86371;fill:#facb00}.st7{fill:#b50027}.st10{stroke-miterlimit:3.86371}.st8{fill:#facb00;stroke:#facb00;stroke-width:.088928}.st8,.st9{stroke-miterlimit:3.86371}.st10,.st9{fill:#b50027;stroke:#b50027}.st9{stroke-width:.646772}.st10{stroke-width:.072828}.st11{fill:#facb00}.st12{fill:#b50027}.st13{fill-rule:evenodd;clip-rule:evenodd;fill:#facb00}.st13,.st14,.st15{stroke:#000;stroke-width:.792792}.st14{fill-rule:evenodd;clip-rule:evenodd;fill:#004fb3}.st15{fill:#facb00}</style><pattern x="158.514" y="907.889" width="69" height="69" patternUnits="userSpaceOnUse" id="Polkamönster" viewBox="2.125 -70.8965 69 69.000023" overflow="visible"><path class="st0" d="M71.125-1.896h-69v-69h69z"/><path class="st1" d="M71.125-1.896h-69v-69h69z"/><path class="st2" d="M61.772-71.653a.249.249 0 0 1-.025.19c-.053.1-.113.063-.165.128a.637.637 0 0 0-.08.362c-.169.058-.01.227-.015.35-.002.05-.04.105-.045.161a.77.77 0 0 0 .068.37c.097.198.268.413.435.544.19.149.365.572.609.631.177.042.383-.104.543-.143.18-.043.397.01.571-.052.222-.08.127-.337.288-.45.104-.075.287-.01.406-.051.2-.07.34-.263.376-.46.016-.082.01-.145.039-.22.038-.103.111-.161.09-.294-.01-.061-.052-.12-.064-.186-.022-.115.002-.224 0-.337-.003-.2.017-.38-.078-.55-.38-.688-1.236-.929-1.975-.79-.18.035-.286.127-.441.208-.17.088-.14.166-.319.223-.08.027-.216.124-.215.224.002.115.005.05.012.169-.02.01-.021-.005-.03-.025m-7.652-.002a.249.249 0 0 1-.025.19c-.053.1-.113.063-.165.128a.636.636 0 0 0-.08.362c-.169.058-.01.227-.015.35-.002.05-.04.105-.045.161a.77.77 0 0 0 .068.37c.097.198.268.413.435.544.19.149.365.572.609.631.177.042.384-.104.543-.143.18-.043.397.01.571-.052.222-.08.127-.337.288-.45.105-.075.287-.01.406-.051.2-.07.34-.263.376-.46.016-.082.01-.145.039-.22.038-.104.111-.161.09-.294-.01-.061-.052-.12-.064-.186-.022-.115.002-.224 0-.337-.003-.2.017-.38-.078-.55-.38-.688-1.236-.929-1.975-.79-.18.035-.286.127-.441.208-.17.088-.14.166-.319.223-.08.027-.216.124-.215.224.002.115.005.05.012.169-.02.01-.021-.005-.03-.025m-7.651-.002a.249.249 0 0 1-.026.19c-.053.1-.112.063-.165.128a.637.637 0 0 0-.08.362c-.168.058-.009.227-.014.35-.003.05-.04.105-.045.161a.77.77 0 0 0 .068.37c.097.198.268.413.435.544.19.149.365.572.608.631.177.042.384-.104.543-.143.18-.043.398.01.572-.052.221-.08.127-.337.288-.45.104-.075.287-.01.406-.051.2-.07.339-.263.376-.46.015-.082.01-.145.038-.22.039-.104.112-.161.09-.294-.01-.061-.051-.12-.064-.186-.022-.115.002-.224 0-.337-.002-.2.017-.38-.077-.55-.38-.688-1.237-.929-1.975-.79-.18.035-.287.127-.442.208-.17.088-.139.166-.318.223-.081.027-.216.124-.215.224.001.115.005.05.012.169-.02.01-.022-.005-.03-.025m-7.652-.002a.249.249 0 0 1-.025.19c-.053.1-.113.063-.165.128a.637.637 0 0 0-.08.362c-.169.058-.01.227-.015.35-.002.05-.04.105-.045.161a.77.77 0 0 0 .068.37c.097.198.268.413.435.544.19.149.365.572.609.631.177.042.383-.104.543-.143.18-.043.397.01.571-.052.222-.08.127-.337.288-.45.104-.075.287-.01.406-.051.2-.07.34-.263.376-.46.016-.082.01-.145.039-.22.038-.103.111-.161.09-.294-.01-.061-.052-.12-.064-.186-.022-.115.002-.224 0-.337-.003-.2.017-.38-.078-.55-.38-.688-1.236-.929-1.975-.79-.18.035-.286.127-.441.208-.17.088-.14.166-.319.223-.08.027-.216.124-.215.224.002.115.005.05.012.169-.02.01-.021-.005-.03-.025m-7.652-.002a.249.249 0 0 1-.025.19c-.053.1-.113.063-.165.128a.636.636 0 0 0-.08.362c-.169.058-.01.227-.015.35-.002.05-.04.105-.045.161a.77.77 0 0 0 .068.37c.097.198.268.413.435.544.19.149.365.572.609.631.177.042.383-.104.543-.143.18-.043.397.01.571-.052.222-.08.127-.337.288-.45.105-.075.287-.01.406-.051.2-.07.34-.263.376-.46.016-.082.01-.145.039-.22.038-.103.111-.161.09-.294-.01-.061-.052-.12-.064-.186-.022-.115.002-.224 0-.337-.003-.2.017-.38-.078-.55-.38-.688-1.236-.929-1.975-.79-.18.035-.286.127-.441.208-.17.088-.14.166-.319.223-.08.027-.216.124-.215.224.002.115.005.05.012.169-.02.01-.021-.005-.03-.025m-7.651-.002a.249.249 0 0 1-.026.19c-.053.1-.112.063-.165.128a.637.637 0 0 0-.08.362c-.168.058-.009.227-.014.35-.003.05-.04.105-.045.161a.77.77 0 0 0 .068.37c.097.198.268.413.435.544.19.149.365.572.608.631.177.042.384-.104.543-.143.18-.043.398.01.571-.052.222-.08.128-.337.289-.45.104-.075.287-.01.406-.051.2-.07.339-.263.376-.46.015-.082.01-.145.038-.22.039-.103.112-.161.09-.294-.01-.061-.051-.12-.064-.186-.022-.115.002-.224 0-.337-.002-.2.017-.38-.077-.55-.38-.688-1.237-.929-1.975-.79-.18.035-.287.127-.442.208-.17.088-.139.166-.318.223-.081.027-.216.124-.215.224.001.115.005.05.012.169-.02.01-.022-.005-.03-.025m-7.651-.002a.249.249 0 0 1-.026.19c-.053.1-.113.063-.165.128a.637.637 0 0 0-.08.362c-.169.058-.01.227-.015.35-.002.05-.04.105-.045.161a.77.77 0 0 0 .068.37c.097.198.268.413.435.544.19.149.365.572.609.631.177.042.383-.104.543-.143.18-.043.397.01.571-.052.222-.08.127-.337.288-.45.104-.075.287-.01.406-.051.2-.07.34-.263.376-.46.016-.082.01-.145.039-.22.038-.103.111-.161.09-.294-.01-.061-.052-.12-.064-.186-.022-.115.002-.224 0-.337-.003-.2.017-.38-.078-.55-.38-.688-1.236-.929-1.975-.79-.18.035-.286.127-.441.208-.17.088-.14.166-.319.223-.08.027-.216.124-.215.224.002.115.005.05.012.169-.02.01-.021-.005-.03-.025m-7.652-.002a.249.249 0 0 1-.025.19c-.053.1-.113.063-.165.128a.636.636 0 0 0-.08.362c-.169.058-.01.227-.015.35-.002.05-.04.105-.045.161a.77.77 0 0 0 .068.37c.097.198.268.413.435.544.19.149.365.572.609.631.177.042.384-.104.543-.143.18-.043.397.01.571-.052.222-.08.127-.337.288-.45.105-.075.287-.01.406-.051.2-.07.34-.263.376-.46.016-.082.01-.145.039-.22.038-.104.111-.161.09-.294-.01-.061-.052-.12-.064-.186-.022-.115.002-.224 0-.337-.003-.2.017-.38-.078-.55-.38-.688-1.236-.929-1.974-.79-.18.035-.287.127-.442.208-.17.088-.14.166-.319.223-.08.027-.216.124-.215.224.002.115.005.05.012.169-.02.01-.021-.005-.03-.025m-7.651-.002a.247.247 0 0 1-.026.19c-.052.1-.113.063-.165.128a.632.632 0 0 0-.08.362c-.168.058-.01.227-.014.35-.003.05-.04.105-.045.161-.01.12.017.266.068.37.097.198.268.413.435.544.19.149.365.572.608.631.177.042.384-.104.543-.143.18-.043.398.01.571-.052.222-.08.128-.337.289-.45.104-.075.287-.01.406-.051.2-.07.34-.263.376-.46.015-.082.01-.145.038-.22.038-.104.112-.161.09-.294-.01-.061-.05-.12-.064-.186-.021-.115.002-.224 0-.337-.002-.2.017-.38-.077-.55-.38-.688-1.237-.929-1.975-.79-.18.035-.287.127-.442.208-.17.088-.139.166-.318.223-.081.027-.216.124-.215.224.002.115.005.05.012.169-.02.01-.022-.005-.03-.025m69.015-.002a.247.247 0 0 1-.026.19c-.052.1-.113.063-.165.128a.633.633 0 0 0-.08.362c-.168.058-.01.227-.014.35-.003.05-.04.105-.045.161-.01.12.017.266.068.37.097.198.268.413.435.544.19.149.365.572.608.631.177.042.384-.104.543-.143.18-.043.398.01.572-.052.221-.08.127-.337.288-.45.104-.075.287-.01.406-.051.2-.07.34-.263.376-.46.015-.082.01-.145.038-.22.038-.103.112-.161.09-.294-.01-.061-.05-.12-.064-.186-.021-.115.002-.224 0-.337-.002-.2.017-.38-.077-.55-.38-.688-1.237-.929-1.975-.79-.18.035-.287.127-.442.208-.17.088-.139.166-.318.223-.081.027-.216.124-.215.224.002.115.005.05.012.169-.02.01-.022-.005-.03-.025"/><path class="st2" d="M.495-71.653a.247.247 0 0 1-.026.19c-.052.1-.113.063-.165.128a.632.632 0 0 0-.079.362c-.169.058-.01.227-.015.35-.002.05-.04.105-.045.161-.01.12.017.266.068.37.097.198.268.413.435.544.19.149.365.572.608.631.178.042.384-.104.543-.143.18-.043.398.01.572-.052.221-.08.127-.337.288-.45.104-.075.287-.01.406-.051.2-.07.34-.263.376-.46.016-.082.01-.145.039-.22.038-.104.11-.161.09-.294-.01-.061-.051-.12-.065-.186-.021-.115.002-.224 0-.337-.002-.2.017-.38-.077-.55-.38-.688-1.237-.929-1.975-.79-.18.035-.286.127-.442.208-.17.088-.138.166-.318.223-.081.027-.215.124-.215.224.002.115.005.05.012.169-.02.01-.022-.005-.03-.025m68.959 7.65a.25.25 0 0 1-.026.19c-.053.101-.112.063-.165.128a.637.637 0 0 0-.08.363c-.168.057-.009.226-.014.35-.003.05-.04.105-.045.16a.77.77 0 0 0 .068.37c.097.199.268.414.435.544.19.149.365.573.608.631.177.042.384-.104.543-.142.18-.043.398.01.572-.053.221-.08.127-.337.288-.45.104-.074.287-.01.406-.05a.61.61 0 0 0 .376-.46c.015-.083.01-.145.038-.222.039-.102.112-.16.09-.293-.01-.061-.051-.12-.064-.186-.022-.114.002-.224 0-.337-.002-.2.017-.379-.077-.55-.38-.687-1.237-.929-1.975-.789-.18.034-.287.126-.442.207-.17.088-.139.166-.318.224-.081.026-.216.124-.215.223.001.116.005.051.012.17-.02.01-.022-.006-.03-.026m-7.646-.002a.249.249 0 0 1-.026.19c-.052.101-.112.063-.165.128a.636.636 0 0 0-.079.363c-.169.057-.009.226-.015.35-.002.05-.04.105-.045.16a.77.77 0 0 0 .068.37c.097.199.268.414.435.545.19.148.365.572.609.63.177.042.383-.104.543-.142.18-.043.397.01.57-.053.222-.08.128-.337.289-.45.104-.074.287-.01.406-.05a.61.61 0 0 0 .376-.46c.016-.083.01-.145.039-.222.038-.102.111-.16.09-.293-.01-.061-.052-.12-.064-.186-.022-.114.001-.224 0-.337-.003-.2.017-.379-.078-.55-.38-.687-1.236-.929-1.975-.789-.18.034-.286.126-.442.207-.17.088-.138.166-.318.224-.081.026-.216.124-.215.223.002.116.005.051.012.17-.02.01-.022-.006-.03-.026m-7.645-.002a.25.25 0 0 1-.026.19c-.052.101-.112.063-.165.128a.636.636 0 0 0-.079.363c-.169.057-.01.226-.015.35-.002.05-.04.105-.045.16a.77.77 0 0 0 .068.37c.097.199.268.414.435.545.19.148.365.572.608.63.178.042.384-.104.543-.142.18-.043.398.01.572-.053.221-.08.127-.337.288-.45.104-.074.287-.01.406-.05a.61.61 0 0 0 .376-.46c.016-.083.01-.145.039-.222.038-.102.11-.16.09-.293-.01-.061-.052-.12-.065-.186-.022-.114.002-.224 0-.337-.002-.2.018-.379-.077-.55-.38-.687-1.236-.929-1.975-.789-.18.034-.286.126-.442.207-.17.088-.138.166-.318.224-.081.026-.216.124-.215.223.002.116.005.051.012.17-.02.01-.022-.006-.03-.026m-7.645-.002a.249.249 0 0 1-.026.19c-.053.101-.113.063-.165.128a.636.636 0 0 0-.08.363c-.168.057-.009.226-.015.35-.002.05-.04.105-.045.16a.77.77 0 0 0 .068.37c.097.199.268.414.435.545.19.148.365.572.609.63.177.042.384-.104.543-.142.18-.043.397.01.571-.053.222-.08.127-.337.288-.45.105-.074.287-.01.406-.05.2-.07.34-.264.376-.46.016-.083.01-.145.039-.222.038-.102.111-.16.09-.293-.01-.061-.052-.12-.064-.186-.022-.114.002-.224 0-.337-.003-.2.017-.379-.078-.55-.38-.687-1.236-.929-1.974-.789-.18.034-.287.126-.442.207-.17.088-.139.166-.319.224-.08.026-.216.124-.215.223.002.116.005.051.012.17-.02.01-.021-.006-.03-.026m-7.645-.002a.25.25 0 0 1-.026.19c-.052.101-.112.063-.165.128a.636.636 0 0 0-.079.363c-.169.057-.009.226-.015.35-.002.05-.04.105-.045.16a.77.77 0 0 0 .068.37c.097.199.268.414.435.544.19.149.365.573.609.631.177.042.383-.104.543-.142.18-.043.397.01.57-.053.223-.08.128-.337.289-.45.104-.074.287-.01.406-.05.2-.07.34-.264.376-.46.016-.083.01-.145.039-.222.038-.102.111-.16.09-.293-.01-.061-.052-.12-.064-.186-.022-.114.002-.224 0-.337-.003-.2.017-.379-.078-.55-.38-.687-1.236-.929-1.975-.789-.18.034-.286.126-.441.207-.17.088-.14.166-.319.224-.08.026-.216.124-.215.223.002.116.005.051.012.17-.02.01-.021-.006-.03-.026m-7.645-.002a.249.249 0 0 1-.026.19c-.053.101-.112.063-.165.128a.636.636 0 0 0-.08.363c-.168.057-.009.226-.014.35-.003.05-.041.105-.045.16a.77.77 0 0 0 .068.37c.097.199.268.414.435.544.19.149.364.573.608.631.177.042.384-.104.543-.142.18-.043.397.01.571-.053.222-.08.128-.337.288-.45.105-.074.287-.01.407-.05.2-.07.338-.264.376-.46.015-.083.01-.145.038-.222.039-.102.111-.16.09-.293-.01-.061-.051-.12-.064-.186-.022-.114.002-.224 0-.337-.002-.2.017-.379-.078-.55-.38-.687-1.236-.929-1.974-.789-.18.034-.287.126-.442.207-.17.088-.139.166-.318.224-.082.026-.216.124-.215.223.001.116.005.051.011.17-.02.01-.021-.006-.03-.026m-7.644-.002a.25.25 0 0 1-.026.19c-.053.101-.113.063-.165.128a.636.636 0 0 0-.08.363c-.168.057-.009.226-.015.35-.002.05-.04.105-.044.16a.77.77 0 0 0 .067.37c.098.199.268.414.435.544.19.149.365.573.609.631.177.042.384-.104.543-.142.18-.043.397.01.571-.053.222-.08.128-.337.288-.45.105-.074.287-.01.406-.05.2-.07.34-.264.376-.46.016-.083.01-.145.039-.222.038-.102.111-.16.09-.293-.01-.061-.052-.12-.064-.186-.022-.114.002-.224 0-.337-.003-.2.017-.379-.078-.55-.38-.687-1.236-.929-1.974-.789-.18.034-.287.126-.442.207-.17.088-.139.166-.319.224-.08.026-.215.124-.215.223.002.116.005.051.012.17-.02.01-.021-.006-.03-.026m-7.645-.002a.249.249 0 0 1-.026.19c-.053.101-.112.063-.165.128a.636.636 0 0 0-.08.363c-.168.057-.008.226-.014.35-.003.05-.04.105-.045.16a.77.77 0 0 0 .068.37c.097.199.268.414.435.545.19.148.365.572.608.63.177.042.384-.104.543-.142.18-.043.398.01.571-.053.222-.08.128-.337.289-.45.104-.074.287-.01.406-.05a.61.61 0 0 0 .376-.46c.015-.083.01-.145.038-.222.039-.102.112-.16.09-.293-.01-.061-.051-.12-.064-.186-.022-.114.002-.224 0-.337-.002-.2.017-.379-.077-.55-.38-.687-1.237-.929-1.975-.789-.18.034-.287.126-.442.207-.17.088-.139.166-.318.224-.081.026-.216.124-.215.223.001.116.005.051.012.17-.02.01-.022-.006-.03-.026m-7.645-.002a.249.249 0 0 1-.026.19c-.053.101-.112.063-.165.128a.636.636 0 0 0-.08.363c-.168.057-.009.226-.014.35-.003.05-.04.105-.045.16a.77.77 0 0 0 .068.37c.097.199.268.414.435.544.19.149.364.573.608.631.177.042.384-.104.543-.142.18-.043.397.01.571-.053.222-.08.128-.337.288-.45.105-.074.288-.01.407-.05a.61.61 0 0 0 .376-.46c.015-.083.01-.145.038-.222.039-.102.111-.16.09-.293-.01-.061-.051-.12-.064-.186-.022-.114.002-.224 0-.337-.002-.2.017-.379-.078-.55-.38-.687-1.236-.929-1.974-.789-.18.034-.287.126-.442.207-.17.088-.139.166-.318.224-.082.026-.216.124-.215.223.001.116.005.051.011.17-.02.01-.021-.005-.03-.026m-7.645-.002a.249.249 0 0 1-.026.19c-.052.101-.112.063-.165.128a.636.636 0 0 0-.079.363c-.169.057-.01.226-.015.35-.002.05-.04.105-.045.16a.77.77 0 0 0 .068.37c.097.199.268.414.435.544.19.149.365.573.608.631.178.042.384-.104.543-.142.18-.043.398.01.572-.053.221-.08.127-.337.288-.45.104-.074.287-.01.406-.05a.61.61 0 0 0 .376-.46c.016-.083.01-.145.039-.222.038-.102.11-.16.09-.293-.01-.061-.052-.12-.065-.186-.022-.114.002-.224 0-.337-.002-.2.017-.379-.077-.55-.38-.687-1.237-.929-1.975-.789-.18.034-.286.126-.442.207-.17.088-.138.166-.318.224-.081.026-.216.124-.215.223.002.116.005.051.012.17-.02.01-.022-.006-.03-.026m68.959 7.651a.25.25 0 0 1-.026.19c-.053.101-.112.063-.165.129a.637.637 0 0 0-.08.362c-.168.058-.009.227-.014.35-.003.05-.04.105-.045.16a.77.77 0 0 0 .068.37c.097.2.268.414.435.545.19.148.365.572.608.63.177.043.384-.104.543-.142.18-.043.398.01.572-.053.221-.079.127-.337.288-.45.104-.074.287-.01.406-.05.2-.07.339-.263.376-.46.015-.083.01-.145.038-.221.039-.103.112-.16.09-.293-.01-.062-.051-.12-.064-.187-.022-.114.002-.223 0-.337-.002-.2.017-.379-.077-.55-.38-.687-1.237-.928-1.975-.789-.18.035-.287.126-.442.207-.17.088-.139.166-.318.224-.081.026-.216.124-.215.224.001.115.005.05.012.169-.02.01-.022-.005-.03-.026m-7.646-.002a.249.249 0 0 1-.026.19c-.052.101-.112.063-.165.129a.636.636 0 0 0-.079.362c-.169.058-.009.227-.015.35-.002.05-.04.105-.045.16-.01.12.017.266.068.37.097.2.268.414.435.545.19.148.365.572.609.63.177.043.383-.104.543-.142.18-.043.397.01.57-.053.222-.079.128-.337.289-.45.104-.074.287-.01.406-.05.2-.07.339-.263.376-.46.016-.083.01-.145.039-.221.038-.103.111-.16.09-.293-.01-.062-.052-.12-.064-.187-.022-.114.002-.223 0-.337-.003-.2.017-.379-.078-.55-.38-.687-1.236-.928-1.975-.789-.18.035-.286.126-.442.207-.17.088-.138.166-.318.224-.081.026-.216.124-.215.224.002.115.005.05.012.169-.02.01-.022-.005-.03-.026m-7.645-.002a.25.25 0 0 1-.026.19c-.052.101-.112.063-.165.129a.637.637 0 0 0-.079.362c-.169.058-.01.227-.015.35-.002.05-.04.105-.045.16a.77.77 0 0 0 .068.37c.097.2.268.414.435.545.19.148.365.572.608.63.178.043.384-.104.543-.142.18-.043.398.01.572-.053.221-.079.127-.337.288-.45.104-.074.287-.01.406-.05.2-.07.339-.263.376-.46.016-.083.01-.145.039-.221.038-.103.11-.16.09-.293-.01-.062-.052-.12-.065-.187-.022-.114.002-.223 0-.337-.002-.2.017-.379-.077-.55-.38-.687-1.237-.928-1.975-.789-.18.035-.286.126-.442.207-.17.088-.138.166-.318.224-.081.026-.216.124-.215.224.002.115.005.05.012.169-.02.01-.022-.005-.03-.026m-7.645-.002a.249.249 0 0 1-.026.19c-.053.101-.113.063-.165.129a.636.636 0 0 0-.08.362c-.168.058-.009.227-.015.35-.002.05-.04.105-.045.16-.01.12.017.266.068.37.097.2.268.414.435.545.19.148.365.572.609.63.177.043.384-.104.543-.142.18-.043.397.01.571-.053.222-.079.127-.337.288-.45.105-.074.287-.01.406-.05.2-.07.34-.263.376-.46.016-.083.01-.145.039-.221.038-.103.111-.16.09-.293-.01-.062-.051-.12-.064-.187-.022-.114.002-.223 0-.337-.003-.2.017-.379-.078-.55-.38-.687-1.236-.928-1.974-.789-.18.035-.287.126-.442.207-.17.088-.139.166-.319.224-.08.026-.215.124-.215.224.002.115.005.05.012.169-.02.01-.021-.005-.03-.026m-7.645-.002a.25.25 0 0 1-.026.19c-.052.101-.112.063-.165.129a.637.637 0 0 0-.079.362c-.169.058-.009.227-.015.35-.002.05-.04.105-.045.16a.77.77 0 0 0 .068.37c.097.2.268.414.435.545.19.148.365.572.609.63.177.043.383-.104.543-.142.18-.043.397.01.57-.053.223-.079.128-.337.289-.45.104-.074.287-.01.406-.05.2-.07.34-.263.376-.46.016-.083.01-.145.039-.221.038-.103.111-.16.09-.293-.01-.062-.052-.12-.064-.187-.022-.114.002-.223 0-.337-.003-.2.017-.379-.078-.55-.38-.687-1.236-.928-1.975-.789-.18.035-.286.126-.441.207-.17.088-.14.166-.319.224-.08.026-.216.124-.215.224.002.115.005.05.012.169-.02.01-.021-.005-.03-.026m-7.645-.002a.249.249 0 0 1-.026.19c-.053.101-.112.063-.165.129a.636.636 0 0 0-.08.362c-.168.058-.009.227-.014.35-.003.05-.041.105-.045.16-.01.12.017.266.068.37.097.2.268.414.435.545.19.148.364.572.608.63.177.043.384-.104.543-.142.18-.043.397.01.571-.053.222-.079.128-.337.288-.45.105-.074.287-.01.407-.05a.61.61 0 0 0 .376-.46c.015-.083.01-.145.038-.221.039-.103.111-.16.09-.293-.01-.062-.051-.12-.064-.187-.022-.114.002-.223 0-.337-.002-.2.017-.379-.078-.55-.38-.687-1.236-.928-1.974-.789-.18.035-.287.126-.442.207-.17.088-.139.166-.318.224-.082.026-.216.124-.215.224.001.115.005.05.011.169-.02.01-.021-.005-.03-.026m-7.644-.002a.25.25 0 0 1-.026.19c-.053.101-.113.063-.165.129a.637.637 0 0 0-.08.362c-.168.058-.009.227-.015.35-.002.05-.04.105-.044.16a.77.77 0 0 0 .067.37c.098.2.268.414.435.545.19.148.365.572.609.63.177.043.384-.104.543-.142.18-.043.397.01.571-.053.222-.079.128-.337.288-.45.105-.074.287-.01.406-.05.2-.07.34-.263.376-.46.016-.083.01-.145.039-.221.038-.103.111-.16.09-.293-.01-.062-.052-.12-.064-.187-.022-.114.002-.223 0-.337-.003-.2.017-.379-.078-.55-.38-.687-1.236-.928-1.974-.789-.18.035-.287.126-.442.207-.17.088-.139.166-.319.224-.08.026-.215.124-.214.224.001.115.004.05.011.169-.02.01-.021-.005-.03-.026m-7.645-.002a.249.249 0 0 1-.026.19c-.053.101-.112.063-.165.129a.636.636 0 0 0-.08.362c-.168.058-.008.227-.014.35-.003.05-.04.105-.045.16-.01.12.017.266.068.37.097.2.268.414.435.545.19.148.365.572.608.63.177.043.384-.104.543-.142.18-.043.398.01.571-.053.222-.079.128-.337.289-.45.104-.074.287-.01.406-.05.2-.07.339-.263.376-.46.015-.083.01-.145.038-.221.039-.103.112-.16.09-.293-.01-.062-.051-.12-.064-.187-.022-.114.002-.223 0-.337-.002-.2.017-.379-.077-.55-.38-.687-1.237-.928-1.975-.789-.18.035-.287.126-.442.207-.17.088-.139.166-.318.224-.081.026-.216.124-.215.224.001.115.005.05.012.169-.02.01-.022-.005-.03-.026m-7.645-.002a.249.249 0 0 1-.026.19c-.053.101-.112.063-.165.129a.636.636 0 0 0-.08.362c-.168.058-.009.227-.014.35-.003.05-.04.105-.045.16a.77.77 0 0 0 .068.37c.097.2.268.414.435.545.19.148.364.572.608.63.177.043.384-.104.543-.142.18-.043.397.01.571-.053.222-.079.128-.337.288-.45.105-.074.288-.01.407-.05.2-.07.339-.263.376-.46.015-.083.01-.145.038-.221.039-.103.111-.16.09-.293-.01-.062-.051-.12-.064-.187-.022-.114.002-.223 0-.337-.002-.2.017-.379-.078-.55-.38-.687-1.236-.928-1.974-.789-.18.035-.287.126-.442.207-.17.088-.139.166-.318.224-.082.026-.216.124-.215.224.001.115.005.05.011.169-.02.01-.021-.005-.03-.026m-7.645-.002a.249.249 0 0 1-.026.19c-.052.101-.112.063-.165.129a.636.636 0 0 0-.079.362c-.169.058-.01.227-.015.35-.002.05-.04.105-.045.16a.77.77 0 0 0 .068.37c.097.2.268.414.435.545.19.148.365.572.608.63.178.043.384-.104.543-.142.18-.043.398.01.572-.053.221-.079.127-.337.288-.45.104-.074.287-.01.406-.05.2-.07.339-.263.376-.46.016-.083.01-.145.039-.221.038-.103.11-.16.09-.293-.01-.062-.052-.12-.065-.187-.022-.114.002-.223 0-.337-.002-.2.017-.379-.077-.55-.38-.687-1.237-.928-1.975-.789-.18.035-.286.126-.442.207-.17.088-.138.166-.318.224-.081.026-.216.124-.215.224.002.115.005.05.012.169-.02.01-.022-.005-.03-.026m68.959 7.651a.249.249 0 0 1-.026.19c-.053.1-.112.063-.165.128a.637.637 0 0 0-.08.362c-.168.058-.009.227-.014.35-.003.05-.04.105-.045.161a.77.77 0 0 0 .068.37c.097.198.268.413.435.544.19.149.365.572.608.631.177.042.384-.104.543-.143.18-.043.398.01.572-.052.221-.08.127-.337.288-.45.104-.075.287-.01.406-.051.2-.07.339-.263.376-.46.015-.082.01-.145.038-.22.039-.103.112-.161.09-.294-.01-.061-.051-.12-.064-.186-.022-.115.002-.224 0-.337-.002-.2.017-.38-.077-.55-.38-.688-1.237-.929-1.975-.79-.18.035-.287.127-.442.208-.17.088-.139.166-.318.223-.081.027-.216.124-.215.224.001.115.005.05.012.169-.02.01-.022-.005-.03-.025m-7.646-.002a.249.249 0 0 1-.026.19c-.052.1-.112.063-.165.128a.636.636 0 0 0-.079.362c-.169.058-.009.227-.015.35-.002.05-.04.105-.045.161-.01.12.017.266.068.37.097.198.268.413.435.544.19.149.365.572.609.631.177.042.383-.104.543-.143.18-.043.397.01.57-.052.223-.08.128-.337.289-.45.104-.075.287-.01.406-.051.2-.07.339-.263.376-.46.016-.082.01-.145.039-.22.038-.103.111-.161.09-.294-.01-.061-.052-.12-.064-.186-.022-.115.002-.224 0-.337-.003-.2.017-.38-.078-.55-.38-.688-1.236-.929-1.975-.79-.18.035-.286.127-.442.208-.17.088-.138.166-.318.223-.081.027-.216.124-.215.224.002.115.005.05.012.169-.02.01-.022-.005-.03-.025m-7.645-.002a.249.249 0 0 1-.026.19c-.052.1-.112.063-.165.128a.637.637 0 0 0-.079.362c-.169.058-.01.227-.015.35-.002.05-.04.105-.045.161a.77.77 0 0 0 .068.37c.097.198.268.413.435.544.19.149.365.572.608.631.178.042.384-.104.543-.143.18-.043.398.01.572-.052.221-.08.127-.337.288-.45.104-.075.287-.01.406-.051.2-.07.339-.263.376-.46.016-.082.01-.145.039-.22.038-.103.11-.161.09-.294-.01-.061-.052-.12-.065-.186-.022-.115.002-.224 0-.337-.002-.2.017-.38-.077-.55-.38-.688-1.237-.929-1.975-.79-.18.035-.286.127-.442.208-.17.088-.138.166-.318.223-.081.027-.216.124-.215.224.002.115.005.05.012.169-.02.01-.022-.005-.03-.025m-7.645-.002a.249.249 0 0 1-.026.19c-.053.1-.113.063-.165.128a.636.636 0 0 0-.08.362c-.168.058-.009.227-.015.35-.002.05-.04.105-.045.161-.01.12.017.266.068.37.097.198.268.413.435.544.19.149.365.572.609.631.177.042.384-.104.543-.143.18-.043.397.01.571-.052.222-.08.127-.337.288-.45.105-.075.287-.01.406-.051.2-.07.34-.263.376-.46.016-.082.01-.145.039-.22.038-.103.111-.161.09-.294-.01-.061-.052-.12-.064-.186-.022-.115.002-.224 0-.337-.003-.2.017-.38-.078-.55-.38-.688-1.236-.929-1.974-.79-.18.035-.287.127-.442.208-.17.088-.139.166-.319.223-.08.027-.216.124-.215.224.002.115.005.05.012.169-.02.01-.021-.005-.03-.025m-7.645-.002a.249.249 0 0 1-.026.19c-.052.1-.112.063-.165.128a.637.637 0 0 0-.079.362c-.169.058-.009.227-.015.35-.002.05-.04.105-.045.161a.77.77 0 0 0 .068.37c.097.198.268.413.435.544.19.149.365.572.609.631.177.042.383-.104.543-.143.18-.043.397.01.57-.052.223-.08.128-.337.289-.45.104-.075.287-.01.406-.051.2-.07.34-.263.376-.46.016-.082.01-.145.039-.22.038-.103.111-.161.09-.294-.01-.061-.052-.12-.064-.186-.022-.115.002-.224 0-.337-.003-.2.017-.38-.078-.55-.38-.688-1.236-.929-1.975-.79-.18.035-.286.127-.441.208-.17.088-.14.166-.319.223-.08.027-.216.124-.215.224.002.115.005.05.012.169-.02.01-.021-.005-.03-.025m-7.645-.002a.249.249 0 0 1-.026.19c-.053.1-.112.063-.165.128a.636.636 0 0 0-.08.362c-.168.058-.009.227-.014.35-.003.05-.041.105-.045.161-.01.12.017.266.068.37.097.198.268.413.435.544.19.149.364.572.608.631.177.042.384-.104.543-.143.18-.043.397.01.571-.052.222-.08.128-.337.288-.45.105-.075.287-.01.407-.051a.61.61 0 0 0 .376-.46c.015-.082.01-.145.038-.22.039-.103.111-.161.09-.294-.01-.061-.051-.12-.064-.186-.022-.115.002-.224 0-.337-.002-.2.017-.38-.078-.55-.38-.688-1.236-.929-1.974-.79-.18.035-.287.127-.442.208-.17.088-.139.166-.318.223-.082.027-.216.124-.215.224.001.115.005.05.011.169-.02.01-.021-.005-.03-.025m-7.644-.002a.249.249 0 0 1-.026.19c-.053.1-.113.063-.165.128a.637.637 0 0 0-.08.362c-.168.058-.009.227-.015.35-.002.05-.04.105-.045.161a.77.77 0 0 0 .068.37c.098.198.268.413.435.544.19.149.365.572.609.631.177.042.384-.104.543-.143.18-.043.397.01.571-.052.222-.08.128-.337.288-.45.105-.075.287-.01.406-.051.2-.07.34-.263.376-.46.016-.082.01-.145.039-.22.038-.103.111-.161.09-.294-.01-.061-.052-.12-.064-.186-.022-.115.002-.224 0-.337-.003-.2.017-.38-.078-.55-.38-.688-1.236-.929-1.974-.79-.18.035-.287.127-.442.208-.17.088-.139.166-.319.223-.08.027-.215.124-.215.224.002.115.005.05.012.169-.02.01-.021-.005-.03-.025m-7.645-.002a.249.249 0 0 1-.026.19c-.053.1-.112.063-.165.128a.636.636 0 0 0-.08.362c-.168.058-.008.227-.014.35-.003.05-.04.105-.045.161-.01.12.017.266.068.37.097.198.268.413.435.544.19.149.364.572.608.631.177.042.384-.104.543-.143.18-.043.398.01.571-.052.222-.08.128-.337.289-.45.104-.075.287-.01.406-.051.2-.07.339-.263.376-.46.015-.082.01-.145.038-.22.039-.103.112-.161.09-.294-.01-.061-.051-.12-.064-.186-.022-.115.002-.224 0-.337-.002-.2.017-.38-.077-.55-.38-.688-1.237-.929-1.975-.79-.18.035-.287.127-.442.208-.17.088-.139.166-.318.223-.081.027-.216.124-.215.224.001.115.005.05.012.169-.02.01-.022-.005-.03-.025m-7.645-.002a.249.249 0 0 1-.026.19c-.053.1-.112.063-.165.128a.636.636 0 0 0-.08.362c-.168.058-.009.227-.014.35-.003.05-.04.105-.045.161a.77.77 0 0 0 .068.37c.097.198.268.413.435.544.19.149.364.572.608.631.177.042.384-.104.543-.143.18-.043.397.01.571-.052.222-.08.128-.337.288-.45.105-.075.288-.01.407-.051.2-.07.339-.263.376-.46.015-.082.01-.145.038-.22.039-.103.111-.161.09-.294-.01-.061-.051-.12-.064-.186-.022-.115.002-.224 0-.337-.002-.2.017-.38-.078-.55-.38-.688-1.236-.929-1.974-.79-.18.035-.287.127-.442.208-.17.088-.139.166-.318.223-.082.027-.216.124-.215.224.001.115.005.05.011.169-.02.01-.021-.005-.03-.025m-7.645-.002a.249.249 0 0 1-.026.19c-.052.1-.112.063-.165.128a.636.636 0 0 0-.079.362c-.169.058-.01.227-.015.35-.002.05-.04.105-.045.161a.77.77 0 0 0 .068.37c.097.198.268.413.435.544.19.149.365.572.608.631.178.042.384-.104.543-.143.18-.043.398.01.572-.052.221-.08.127-.337.288-.45.104-.075.287-.01.406-.051.2-.07.339-.263.376-.46.016-.082.01-.145.039-.22.038-.103.11-.161.09-.294-.01-.061-.052-.12-.065-.186-.022-.115.002-.224 0-.337-.002-.2.017-.38-.077-.55-.38-.688-1.237-.929-1.975-.79-.18.035-.286.127-.442.208-.17.088-.138.166-.318.223-.081.027-.216.124-.215.224.002.115.005.05.012.169-.02.01-.022-.005-.03-.025m68.959 7.651a.249.249 0 0 1-.026.19c-.053.101-.112.063-.165.128a.637.637 0 0 0-.08.363c-.168.057-.009.226-.014.35-.003.05-.04.105-.045.16a.77.77 0 0 0 .068.37c.097.199.268.414.435.544.19.149.365.573.608.631.177.042.384-.104.543-.142.18-.043.398.01.572-.053.221-.08.127-.337.288-.45.104-.074.287-.01.406-.051.2-.07.339-.263.376-.46.015-.082.01-.144.038-.22.039-.103.112-.16.09-.294-.01-.061-.051-.12-.064-.186-.022-.114.002-.224 0-.337-.002-.2.017-.379-.077-.55-.38-.687-1.237-.929-1.975-.789-.18.034-.287.126-.442.207-.17.088-.139.166-.318.224-.081.026-.216.124-.215.223.001.116.005.051.012.17-.02.01-.022-.006-.03-.026m-7.646-.002a.248.248 0 0 1-.026.19c-.052.101-.112.063-.165.128a.636.636 0 0 0-.079.363c-.169.057-.009.226-.015.35-.002.05-.04.105-.045.16a.77.77 0 0 0 .068.37c.097.199.268.414.435.544.19.149.365.573.609.631.177.042.383-.104.543-.142.18-.043.397.01.57-.053.222-.08.128-.337.289-.45.104-.074.287-.01.406-.051.2-.07.339-.263.376-.46.016-.082.01-.144.039-.22.038-.103.111-.16.09-.294-.01-.061-.052-.12-.064-.186-.022-.114.001-.224 0-.337-.003-.2.017-.379-.078-.55-.38-.687-1.236-.929-1.975-.789-.18.034-.286.126-.442.207-.17.088-.138.166-.318.224-.081.026-.216.124-.215.223.002.116.005.051.012.17-.02.01-.022-.006-.03-.026m-7.645-.002a.249.249 0 0 1-.026.19c-.052.101-.112.063-.165.128a.636.636 0 0 0-.079.363c-.169.057-.01.226-.015.35-.002.05-.04.105-.045.16a.77.77 0 0 0 .068.37c.097.199.268.414.435.544.19.149.365.573.608.631.178.042.384-.104.543-.142.18-.043.398.01.572-.053.221-.08.127-.337.288-.45.104-.074.287-.01.406-.051.2-.07.339-.263.376-.46.016-.082.01-.144.039-.22.038-.103.11-.16.09-.294-.01-.061-.052-.12-.065-.186-.022-.114.002-.224 0-.337-.002-.2.017-.379-.077-.55-.38-.687-1.237-.929-1.975-.789-.18.034-.286.126-.442.207-.17.088-.138.166-.318.224-.081.026-.216.124-.215.223.002.116.005.051.012.17-.02.01-.022-.006-.03-.026m-7.645-.002a.248.248 0 0 1-.026.19c-.053.101-.113.063-.165.128a.636.636 0 0 0-.08.363c-.168.057-.009.226-.015.35-.002.05-.04.105-.045.16a.77.77 0 0 0 .068.37c.097.199.268.414.435.544.19.149.365.573.609.631.177.042.384-.104.543-.142.18-.043.397.01.571-.053.222-.08.127-.337.288-.45.105-.074.287-.01.406-.051.2-.07.34-.263.376-.46.016-.082.01-.144.039-.22.038-.103.111-.16.09-.294-.01-.061-.052-.12-.064-.186-.022-.114.002-.224 0-.337-.003-.2.017-.379-.078-.55-.38-.687-1.236-.929-1.974-.789-.18.034-.287.126-.442.207-.17.088-.139.166-.319.224-.08.026-.216.124-.215.223.002.116.005.051.012.17-.02.01-.021-.006-.03-.026m-7.645-.002a.249.249 0 0 1-.026.19c-.052.101-.112.063-.165.128a.636.636 0 0 0-.079.363c-.169.057-.009.226-.015.35-.002.05-.04.105-.045.16a.77.77 0 0 0 .068.37c.097.199.268.414.435.544.19.149.365.573.609.631.177.042.383-.104.543-.142.18-.043.397.01.57-.053.223-.08.128-.337.289-.45.104-.074.287-.01.406-.051.2-.07.34-.263.376-.46.016-.082.01-.144.039-.22.038-.103.111-.16.09-.294-.01-.061-.052-.12-.064-.186-.022-.114.002-.224 0-.337-.003-.2.017-.379-.078-.55-.38-.687-1.236-.928-1.975-.789-.18.034-.286.126-.441.207-.17.088-.14.166-.319.224-.08.026-.216.124-.215.223.002.116.005.051.012.17-.02.01-.021-.006-.03-.026m-7.645-.002a.248.248 0 0 1-.026.19c-.053.101-.112.063-.165.128a.636.636 0 0 0-.08.363c-.168.057-.009.226-.014.35-.003.05-.041.105-.045.16a.77.77 0 0 0 .068.37c.097.199.268.414.435.544.19.149.364.573.608.631.177.042.384-.104.543-.142.18-.043.397.01.571-.053.222-.08.128-.337.288-.45.105-.074.287-.01.407-.051a.61.61 0 0 0 .376-.46c.015-.082.01-.144.038-.22.039-.103.111-.16.09-.294-.01-.061-.051-.12-.064-.186-.022-.114.002-.224 0-.337-.002-.2.017-.379-.078-.55-.38-.687-1.236-.929-1.974-.789-.18.034-.287.126-.442.207-.17.088-.139.166-.318.224-.082.026-.216.124-.215.223.001.116.005.051.011.17-.02.01-.021-.006-.03-.026m-7.644-.002a.249.249 0 0 1-.026.19c-.053.101-.113.063-.165.128a.636.636 0 0 0-.08.363c-.168.057-.009.226-.015.35-.002.05-.04.105-.044.16a.77.77 0 0 0 .067.37c.098.199.268.414.435.544.19.149.365.573.609.631.177.042.384-.104.543-.142.18-.043.397.01.571-.053.222-.08.128-.337.288-.45.105-.074.287-.01.406-.051.2-.07.34-.263.376-.46.016-.082.01-.144.039-.22.038-.103.111-.16.09-.294-.01-.061-.052-.12-.064-.186-.022-.114.002-.224 0-.337-.003-.2.017-.379-.078-.55-.38-.687-1.236-.929-1.974-.789-.18.034-.287.126-.442.207-.17.088-.139.166-.319.224-.08.026-.215.124-.215.223.002.116.005.051.012.17-.02.01-.021-.006-.03-.026m-7.645-.002a.248.248 0 0 1-.026.19c-.053.101-.112.063-.165.128a.636.636 0 0 0-.08.363c-.168.057-.008.226-.014.35-.003.05-.04.105-.045.16a.77.77 0 0 0 .068.37c.097.199.268.414.435.544.19.149.365.573.608.631.177.042.384-.104.543-.142.18-.043.398.01.571-.053.222-.08.128-.337.289-.45.104-.074.287-.01.406-.051.2-.07.339-.263.376-.46.015-.082.01-.144.038-.22.039-.103.112-.16.09-.294-.01-.061-.051-.12-.064-.186-.022-.114.002-.224 0-.337-.002-.2.017-.379-.077-.55-.38-.687-1.237-.929-1.975-.789-.18.034-.287.126-.442.207-.17.088-.139.166-.318.224-.081.026-.216.124-.215.223.001.116.005.051.012.17-.02.01-.022-.006-.03-.026m-7.645-.002a.249.249 0 0 1-.026.19c-.053.101-.112.063-.165.128a.636.636 0 0 0-.08.363c-.168.057-.009.226-.014.35-.003.05-.04.105-.045.16a.77.77 0 0 0 .068.37c.097.199.268.414.435.544.19.149.364.573.608.631.177.042.384-.104.543-.142.18-.043.397.01.571-.053.222-.08.128-.337.288-.45.105-.074.288-.01.407-.051.2-.07.339-.263.376-.46.015-.082.01-.144.038-.22.039-.103.111-.16.09-.294-.01-.061-.051-.12-.064-.186-.022-.114.002-.224 0-.337-.002-.2.017-.379-.078-.55-.38-.687-1.236-.928-1.974-.789-.18.034-.287.126-.442.207-.17.088-.139.166-.318.224-.082.026-.216.124-.215.223.001.116.005.051.011.17-.02.01-.021-.006-.03-.026m-7.645-.002a.249.249 0 0 1-.026.19c-.052.101-.112.063-.165.128a.636.636 0 0 0-.079.363c-.169.057-.01.226-.015.35-.002.05-.04.105-.045.16a.77.77 0 0 0 .068.37c.097.199.268.414.435.544.19.149.365.573.608.631.178.042.384-.104.543-.142.18-.043.398.01.572-.053.221-.08.127-.337.288-.45.104-.074.287-.01.406-.051.2-.07.339-.263.376-.46.016-.082.01-.144.039-.22.038-.103.11-.16.09-.294-.01-.061-.052-.12-.065-.186-.022-.114.002-.224 0-.337-.002-.2.017-.379-.077-.55-.38-.687-1.237-.929-1.975-.789-.18.034-.286.126-.442.207-.17.088-.138.166-.318.224-.081.026-.216.124-.215.223.002.116.005.051.012.17-.02.01-.022-.006-.03-.026m68.959 7.65a.25.25 0 0 1-.026.19c-.053.101-.112.063-.165.129a.637.637 0 0 0-.08.362c-.168.058-.009.227-.014.35-.003.05-.04.105-.045.16a.77.77 0 0 0 .068.37c.097.2.268.414.435.545.19.148.365.572.608.63.177.043.384-.104.543-.142.18-.043.398.01.572-.053.221-.079.127-.336.288-.45.104-.074.287-.01.406-.05.2-.07.339-.263.376-.46.015-.083.01-.145.038-.221.039-.103.112-.16.09-.293-.01-.062-.051-.12-.064-.187-.022-.114.002-.223 0-.337-.002-.2.017-.379-.077-.55-.38-.687-1.237-.928-1.975-.789-.18.035-.287.126-.442.207-.17.088-.139.166-.318.224-.081.027-.216.124-.215.224.001.115.005.05.012.169-.02.01-.022-.005-.03-.026m-7.646-.002a.249.249 0 0 1-.026.19c-.052.101-.112.063-.165.129a.636.636 0 0 0-.079.362c-.169.058-.009.227-.015.35-.002.05-.04.105-.045.16-.01.12.017.266.068.37.097.2.268.414.435.545.19.148.365.572.609.63.177.043.383-.104.543-.142.18-.043.397.01.57-.053.222-.079.128-.336.289-.45.104-.074.287-.01.406-.05.2-.07.339-.263.376-.46.016-.083.01-.145.039-.221.038-.103.111-.16.09-.293-.01-.062-.052-.12-.064-.187-.022-.114.002-.223 0-.337-.003-.2.017-.379-.078-.55-.38-.687-1.236-.928-1.975-.789-.18.035-.286.126-.442.207-.17.088-.138.166-.318.224-.081.027-.216.124-.215.224.002.115.005.05.012.169-.02.01-.021-.005-.03-.026m-7.645-.002a.249.249 0 0 1-.026.19c-.052.101-.112.063-.165.129a.637.637 0 0 0-.079.362c-.169.058-.01.227-.015.35-.002.05-.04.105-.045.16a.77.77 0 0 0 .068.37c.097.2.268.414.435.545.19.148.365.572.608.63.178.043.384-.104.543-.142.18-.043.398.01.572-.053.221-.079.127-.336.288-.45.104-.074.287-.01.406-.05.2-.07.339-.263.376-.46.016-.083.01-.145.039-.221.038-.103.11-.16.09-.293-.01-.062-.052-.12-.065-.187-.022-.114.002-.223 0-.337-.002-.2.017-.379-.077-.55-.38-.687-1.237-.928-1.975-.789-.18.035-.286.126-.442.207-.17.088-.138.166-.318.224-.081.027-.216.124-.215.224.002.115.005.05.012.169-.02.01-.022-.005-.03-.026m-7.645-.002a.249.249 0 0 1-.026.19c-.053.101-.113.063-.165.129a.636.636 0 0 0-.08.362c-.168.058-.009.227-.015.35-.002.05-.04.105-.045.16-.01.12.017.266.068.37.097.2.268.414.435.545.19.148.365.572.609.63.177.043.384-.104.543-.142.18-.043.397.01.571-.053.222-.079.127-.336.288-.45.105-.074.287-.01.406-.05.2-.07.34-.263.376-.46.016-.083.01-.145.039-.221.038-.103.111-.16.09-.293-.01-.062-.052-.12-.064-.187-.022-.114.002-.223 0-.337-.003-.2.017-.379-.078-.55-.38-.687-1.236-.928-1.974-.789-.18.035-.287.126-.442.207-.17.088-.139.166-.319.224-.08.027-.216.124-.215.224.002.115.005.05.012.169-.02.01-.021-.005-.03-.026m-7.645-.002a.249.249 0 0 1-.026.19c-.052.101-.112.063-.165.129a.637.637 0 0 0-.079.362c-.169.058-.009.227-.015.35-.002.05-.04.105-.045.16a.77.77 0 0 0 .068.37c.097.2.268.414.435.545.19.148.365.572.609.63.177.043.383-.104.543-.142.18-.043.397.01.57-.053.223-.079.128-.336.289-.45.104-.074.287-.01.406-.05.2-.07.34-.263.376-.46.016-.083.01-.145.039-.221.038-.103.111-.16.09-.293-.01-.062-.052-.12-.064-.187-.022-.114.002-.223 0-.337-.003-.2.017-.379-.078-.55-.38-.687-1.236-.928-1.975-.789-.18.035-.286.126-.441.207-.17.088-.14.166-.319.224-.08.027-.216.124-.215.224.002.115.005.05.012.169-.02.01-.021-.005-.03-.026m-7.645-.002a.249.249 0 0 1-.026.19c-.053.101-.112.063-.165.129a.636.636 0 0 0-.08.362c-.168.058-.009.227-.014.35-.003.05-.041.105-.045.16-.01.12.017.266.068.37.097.2.268.414.435.545.19.148.364.572.608.63.177.043.384-.104.543-.142.18-.043.397.01.571-.053.222-.079.128-.336.288-.45.105-.074.287-.01.407-.05a.61.61 0 0 0 .376-.46c.015-.083.01-.145.038-.221.039-.103.111-.16.09-.293-.01-.062-.051-.12-.064-.187-.022-.114.002-.223 0-.337-.002-.2.017-.379-.078-.55-.38-.687-1.236-.928-1.974-.789-.18.035-.287.126-.442.207-.17.088-.139.166-.318.224-.082.027-.216.124-.215.224.001.115.005.05.011.169-.02.01-.021-.005-.03-.026m-7.644-.002a.249.249 0 0 1-.026.19c-.053.101-.113.063-.165.129a.637.637 0 0 0-.08.362c-.168.058-.009.227-.015.35-.002.05-.04.105-.044.16a.77.77 0 0 0 .067.37c.098.2.268.414.435.545.19.148.365.572.609.63.177.043.384-.104.543-.142.18-.043.397.01.571-.053.222-.079.128-.336.288-.45.105-.074.287-.01.406-.05.2-.07.34-.263.376-.46.016-.083.01-.145.039-.221.039-.103.111-.16.09-.293-.01-.062-.051-.12-.064-.187-.022-.114.002-.223 0-.337-.003-.2.017-.379-.078-.55-.38-.687-1.236-.928-1.974-.789-.18.035-.287.126-.442.207-.17.088-.139.166-.319.224-.08.027-.215.124-.214.224.001.115.004.05.011.169-.02.01-.021-.005-.03-.026m-7.645-.002a.249.249 0 0 1-.026.19c-.053.101-.112.063-.165.129a.636.636 0 0 0-.08.362c-.168.058-.008.227-.014.35-.003.05-.04.105-.045.16-.01.12.017.266.068.37.097.2.268.414.435.545.19.148.365.572.608.63.177.043.384-.104.543-.142.18-.043.398.01.571-.053.222-.079.128-.336.289-.45.104-.074.287-.01.406-.05.2-.07.339-.263.376-.46.015-.083.01-.145.038-.221.039-.103.112-.16.09-.293-.01-.062-.051-.12-.064-.187-.022-.114.002-.223 0-.337-.002-.2.017-.379-.077-.55-.38-.687-1.237-.928-1.975-.789-.18.035-.287.126-.442.207-.17.088-.139.166-.318.224-.081.027-.216.124-.215.224.001.115.005.05.012.169-.02.01-.022-.005-.03-.026m-7.645-.002a.249.249 0 0 1-.026.19c-.053.101-.112.063-.165.129a.636.636 0 0 0-.08.362c-.168.058-.009.227-.014.35-.003.05-.04.105-.045.16a.77.77 0 0 0 .068.37c.097.2.268.414.435.545.19.148.364.572.608.63.177.043.384-.104.543-.142.18-.043.397.01.571-.053.222-.079.128-.336.288-.45.105-.074.288-.01.407-.05.2-.07.339-.263.376-.46.015-.083.01-.145.038-.221.039-.103.111-.16.09-.293-.01-.062-.051-.12-.064-.187-.022-.114.002-.223 0-.337-.002-.2.017-.379-.078-.55-.38-.687-1.236-.928-1.974-.789-.18.035-.287.126-.442.207-.17.088-.139.166-.318.224-.082.027-.216.124-.215.224.001.115.005.05.011.169-.02.01-.021-.005-.03-.026M.495-33.39a.249.249 0 0 1-.026.19c-.052.101-.112.063-.165.129a.636.636 0 0 0-.079.362c-.169.058-.01.227-.015.35-.002.05-.04.105-.045.16a.77.77 0 0 0 .068.37c.097.2.268.414.435.545.19.148.365.572.608.63.178.043.384-.104.543-.142.18-.043.398.01.572-.053.221-.079.127-.336.288-.45.104-.074.287-.01.406-.05.2-.07.339-.263.376-.46.016-.083.01-.145.039-.221.038-.103.11-.16.09-.293-.01-.062-.052-.12-.065-.187-.022-.114.002-.223 0-.337-.002-.2.017-.379-.077-.55-.38-.687-1.237-.928-1.975-.789-.18.035-.286.126-.442.207-.17.088-.138.166-.318.224-.081.027-.216.124-.215.224.002.115.005.05.012.169-.02.01-.022-.005-.03-.026m68.959 7.652a.25.25 0 0 1-.026.19c-.053.1-.112.063-.165.128a.637.637 0 0 0-.08.362c-.168.058-.009.227-.014.35-.003.05-.04.105-.045.161a.77.77 0 0 0 .068.37c.097.198.268.413.435.544.19.149.365.572.608.631.177.042.384-.104.543-.143.18-.042.398.01.572-.052.221-.08.127-.337.288-.45.104-.075.287-.01.406-.051.2-.07.339-.263.376-.46.015-.082.01-.145.038-.221.039-.103.112-.16.09-.293-.01-.061-.051-.12-.064-.186-.022-.115.002-.224 0-.337-.002-.2.017-.38-.077-.55-.38-.688-1.237-.929-1.975-.79-.18.035-.287.127-.442.208-.17.088-.139.166-.318.223-.081.027-.216.124-.215.224.001.115.005.05.012.169-.02.01-.022-.005-.03-.025m-7.646-.002a.249.249 0 0 1-.026.19c-.052.1-.112.063-.165.128a.636.636 0 0 0-.079.362c-.169.058-.009.227-.015.35-.002.05-.04.105-.045.161-.01.12.017.266.068.37.097.198.268.413.435.544.19.149.365.572.609.631.177.042.383-.105.543-.143.18-.042.397.01.57-.052.222-.08.128-.337.289-.45.104-.075.287-.01.406-.051.2-.07.339-.263.376-.46.016-.082.01-.145.039-.221.038-.102.111-.16.09-.293-.01-.061-.052-.12-.064-.186-.022-.115.002-.224 0-.337-.003-.2.017-.38-.078-.55-.38-.688-1.236-.929-1.975-.79-.18.035-.286.127-.442.208-.17.088-.138.166-.318.223-.081.027-.216.124-.215.224.002.115.005.05.012.169-.02.01-.022-.005-.03-.025m-7.645-.002a.249.249 0 0 1-.026.19c-.052.1-.112.063-.165.128a.637.637 0 0 0-.079.362c-.169.058-.01.227-.015.35-.002.05-.04.105-.045.161a.77.77 0 0 0 .068.37c.097.198.268.413.435.544.19.149.365.572.608.631.178.042.384-.104.543-.143.18-.042.398.01.572-.052.221-.08.127-.337.288-.45.104-.075.287-.01.406-.051.2-.07.339-.263.376-.46.016-.082.01-.145.039-.221.038-.103.11-.16.09-.293-.01-.061-.052-.12-.065-.186-.022-.115.002-.224 0-.337-.002-.2.018-.38-.077-.55-.38-.688-1.236-.929-1.975-.79-.18.035-.286.127-.442.208-.17.088-.138.166-.318.223-.081.027-.216.124-.215.224.002.115.005.05.012.169-.02.01-.022-.005-.03-.025m-7.645-.002a.249.249 0 0 1-.026.19c-.053.1-.113.063-.165.128a.636.636 0 0 0-.08.362c-.168.058-.009.227-.015.35-.002.05-.04.105-.045.161-.01.12.017.266.068.37.097.198.268.413.435.544.19.149.365.572.609.631.177.042.384-.104.543-.143.18-.042.397.01.571-.052.222-.08.127-.337.288-.45.105-.075.287-.01.406-.051.2-.07.34-.263.376-.46.016-.082.01-.145.039-.221.038-.103.111-.16.09-.293-.01-.061-.052-.12-.064-.186-.022-.115.002-.224 0-.337-.003-.2.017-.38-.078-.55-.38-.688-1.236-.929-1.974-.79-.18.035-.287.127-.442.208-.17.088-.139.166-.319.223-.08.027-.216.124-.215.224.002.115.005.05.012.169-.02.01-.021-.005-.03-.025m-7.645-.002a.249.249 0 0 1-.026.19c-.052.1-.112.063-.165.128a.637.637 0 0 0-.079.362c-.169.058-.009.227-.015.35-.002.05-.04.105-.045.161a.77.77 0 0 0 .068.37c.097.198.268.413.435.544.19.149.365.572.609.631.177.042.383-.105.543-.143.18-.042.397.01.57-.052.223-.08.128-.337.289-.45.104-.075.287-.01.406-.051.2-.07.34-.263.376-.46.016-.082.01-.145.039-.221.038-.103.111-.16.09-.293-.01-.061-.052-.12-.064-.186-.022-.115.002-.224 0-.337-.003-.2.017-.38-.078-.55-.38-.688-1.236-.929-1.975-.79-.18.035-.286.127-.441.208-.17.088-.14.166-.319.223-.08.027-.216.124-.215.224.002.115.005.05.012.169-.02.01-.021-.005-.03-.025m-7.645-.002a.249.249 0 0 1-.026.19c-.053.1-.112.063-.165.128a.636.636 0 0 0-.08.362c-.168.058-.009.227-.014.35-.003.05-.041.105-.045.161-.01.12.017.266.068.37.097.198.268.413.435.544.19.149.364.572.608.631.177.042.384-.104.543-.143.18-.042.397.01.571-.052.222-.08.128-.337.288-.45.105-.075.287-.01.407-.051a.61.61 0 0 0 .376-.46c.015-.082.01-.145.038-.221.039-.102.111-.16.09-.293-.01-.061-.051-.12-.064-.186-.022-.115.002-.224 0-.337-.002-.2.017-.38-.078-.55-.38-.688-1.236-.929-1.974-.79-.18.035-.287.127-.442.208-.17.088-.139.166-.319.223-.08.027-.215.124-.214.224.001.115.005.05.011.169-.02.01-.021-.005-.03-.025m-7.644-.002a.249.249 0 0 1-.026.19c-.053.1-.113.063-.165.128a.637.637 0 0 0-.08.362c-.168.058-.009.227-.015.35-.002.05-.04.105-.045.161a.77.77 0 0 0 .068.37c.098.198.268.413.435.544.19.149.365.572.609.631.177.042.384-.104.543-.143.18-.042.397.01.571-.052.222-.08.128-.337.288-.45.105-.075.287-.01.406-.051.2-.07.34-.263.376-.46.016-.082.01-.145.039-.221.039-.103.111-.16.09-.293-.01-.061-.051-.12-.064-.186-.022-.115.002-.224 0-.337-.003-.2.017-.38-.078-.55-.38-.688-1.236-.929-1.974-.79-.18.035-.287.127-.442.208-.17.088-.139.166-.319.223-.08.027-.215.124-.214.224.001.115.004.05.011.169-.02.01-.021-.005-.03-.025m-7.645-.002a.249.249 0 0 1-.026.19c-.053.1-.112.063-.165.128a.636.636 0 0 0-.08.362c-.168.058-.008.227-.014.35-.003.05-.04.105-.045.161-.01.12.017.266.068.37.097.198.268.413.435.544.19.149.365.572.608.631.177.042.384-.105.543-.143.18-.042.398.01.571-.052.222-.08.128-.337.289-.45.104-.075.287-.01.406-.051.2-.07.339-.263.376-.46.015-.082.01-.145.038-.221.039-.102.112-.16.09-.293-.01-.061-.051-.12-.064-.186-.022-.115.002-.224 0-.337-.002-.2.017-.38-.077-.55-.38-.688-1.237-.929-1.975-.79-.18.035-.287.127-.442.208-.17.088-.139.166-.318.223-.081.027-.216.124-.215.224.001.115.005.05.012.169-.02.01-.022-.005-.03-.025m-7.645-.002a.249.249 0 0 1-.026.19c-.053.1-.112.063-.165.128a.636.636 0 0 0-.08.362c-.168.058-.009.227-.014.35-.003.05-.04.105-.045.161a.77.77 0 0 0 .068.37c.097.198.268.413.435.544.19.149.364.572.608.631.177.042.384-.104.543-.143.18-.042.397.01.571-.052.222-.08.128-.337.288-.45.105-.075.288-.01.407-.051.2-.07.339-.263.376-.46.015-.082.01-.145.038-.221.039-.102.111-.16.09-.293-.01-.061-.051-.12-.064-.186-.022-.115.002-.224 0-.337-.002-.2.017-.38-.078-.55-.38-.688-1.236-.929-1.974-.79-.18.035-.287.127-.442.208-.17.088-.139.166-.318.223-.082.027-.216.124-.215.224.001.115.005.05.011.169-.02.01-.021-.005-.03-.025m-7.645-.002a.249.249 0 0 1-.026.19c-.052.1-.112.063-.165.128a.636.636 0 0 0-.079.362c-.169.058-.01.227-.015.35-.002.05-.04.105-.045.161a.77.77 0 0 0 .068.37c.097.198.268.413.435.544.19.149.365.572.608.631.178.042.384-.104.543-.143.18-.042.398.01.572-.052.221-.08.127-.337.288-.45.104-.075.287-.01.406-.051.2-.07.339-.263.376-.46.016-.082.01-.145.039-.221.038-.103.11-.16.09-.293-.01-.061-.052-.12-.065-.186-.022-.115.002-.224 0-.337-.002-.2.017-.38-.077-.55-.38-.688-1.237-.929-1.975-.79-.18.035-.286.127-.442.208-.17.088-.138.166-.318.223-.081.027-.216.124-.215.224.002.115.005.05.012.169-.02.01-.022-.005-.03-.025m68.959 7.65a.249.249 0 0 1-.026.19c-.053.101-.112.063-.165.128a.637.637 0 0 0-.08.363c-.168.057-.009.226-.014.35-.003.05-.04.105-.045.16a.77.77 0 0 0 .068.37c.097.199.268.414.435.544.19.149.365.573.608.631.177.042.384-.104.543-.142.18-.043.398.01.572-.053.221-.08.127-.337.288-.45.104-.074.287-.01.406-.05a.61.61 0 0 0 .376-.46c.015-.083.01-.145.038-.222.039-.102.112-.16.09-.293-.01-.061-.051-.12-.064-.186-.022-.114.002-.224 0-.337-.002-.2.017-.379-.077-.55-.38-.687-1.237-.929-1.975-.789-.18.034-.287.126-.442.207-.17.088-.139.166-.318.224-.081.026-.216.124-.215.223.001.116.005.051.012.17-.02.01-.022-.006-.03-.026m-7.646-.002a.248.248 0 0 1-.026.19c-.052.101-.112.063-.165.128a.636.636 0 0 0-.079.363c-.169.057-.009.226-.015.35-.002.05-.04.105-.045.16a.77.77 0 0 0 .068.37c.097.199.268.414.435.544.19.149.365.573.609.631.177.042.383-.104.543-.142.18-.043.397.01.57-.053.222-.08.128-.337.289-.45.104-.074.287-.01.406-.05a.61.61 0 0 0 .376-.46c.016-.083.01-.145.039-.222.038-.102.111-.16.09-.293-.01-.061-.052-.12-.064-.186-.022-.114.001-.224 0-.337-.003-.2.017-.379-.078-.55-.38-.687-1.236-.928-1.975-.789-.18.034-.286.126-.442.207-.17.088-.138.166-.318.224-.081.026-.216.124-.215.223.002.116.005.051.012.17-.02.01-.022-.005-.03-.026m-7.645-.002a.249.249 0 0 1-.026.19c-.052.101-.112.063-.165.128a.636.636 0 0 0-.079.363c-.169.057-.01.226-.015.35-.002.05-.04.105-.045.16a.77.77 0 0 0 .068.37c.097.199.268.414.435.544.19.149.365.573.608.631.178.042.384-.104.543-.142.18-.043.398.01.572-.053.221-.08.127-.337.288-.45.104-.074.287-.01.406-.05a.61.61 0 0 0 .376-.46c.016-.083.01-.145.039-.222.038-.102.11-.16.09-.293-.01-.061-.052-.12-.065-.186-.022-.114.002-.224 0-.337-.002-.2.018-.379-.077-.55-.38-.687-1.236-.929-1.975-.789-.18.034-.286.126-.442.207-.17.088-.138.166-.318.224-.081.026-.216.124-.215.223.002.116.005.051.012.17-.02.01-.022-.006-.03-.026m-7.645-.002a.248.248 0 0 1-.026.19c-.053.101-.113.063-.165.128a.636.636 0 0 0-.08.363c-.168.057-.009.226-.015.35-.002.05-.04.105-.045.16a.77.77 0 0 0 .068.37c.097.199.268.414.435.544.19.149.365.573.609.631.177.042.384-.104.543-.142.18-.043.397.01.571-.053.222-.08.127-.337.288-.45.105-.074.287-.01.406-.05.2-.07.34-.264.376-.46.016-.083.01-.145.039-.222.038-.102.111-.16.09-.293-.01-.061-.051-.12-.064-.186-.022-.114.002-.224 0-.337-.003-.2.017-.379-.078-.55-.38-.687-1.236-.928-1.974-.789-.18.034-.287.126-.442.207-.17.088-.139.166-.319.224-.08.026-.215.124-.215.223.002.116.005.051.012.17-.02.01-.021-.005-.03-.026m-7.645-.002a.249.249 0 0 1-.026.19c-.052.101-.112.063-.165.128a.636.636 0 0 0-.079.363c-.169.057-.009.226-.015.35-.002.05-.04.105-.045.16a.77.77 0 0 0 .068.37c.097.199.268.414.435.544.19.149.365.573.609.631.177.042.383-.104.543-.142.18-.043.397.01.57-.053.223-.08.128-.337.289-.45.104-.074.287-.01.406-.05.2-.07.34-.264.376-.46.016-.083.01-.145.039-.222.038-.102.111-.16.09-.293-.01-.061-.052-.12-.064-.186-.022-.114.002-.224 0-.337-.003-.2.017-.379-.078-.55-.38-.687-1.236-.928-1.975-.789-.18.034-.286.126-.441.207-.17.088-.14.166-.319.224-.08.026-.216.124-.215.223.002.116.005.051.012.17-.02.01-.021-.005-.03-.026m-7.645-.002a.248.248 0 0 1-.026.19c-.053.101-.112.063-.165.128a.636.636 0 0 0-.08.363c-.168.057-.009.226-.014.35-.003.05-.041.105-.045.16a.77.77 0 0 0 .068.37c.097.199.268.414.435.544.19.149.364.573.608.631.177.042.384-.104.543-.142.18-.043.397.01.571-.053.222-.08.128-.337.288-.45.105-.074.287-.01.407-.05.2-.07.338-.264.376-.46.015-.083.01-.145.038-.222.039-.102.111-.16.09-.293-.01-.061-.051-.12-.064-.186-.022-.114.002-.224 0-.337-.002-.2.017-.379-.078-.55-.38-.687-1.236-.929-1.974-.789-.18.034-.287.126-.442.207-.17.088-.139.166-.318.224-.082.026-.216.124-.215.223.001.116.005.051.011.17-.02.01-.021-.006-.03-.026m-7.644-.002a.249.249 0 0 1-.026.19c-.053.101-.113.063-.165.128a.636.636 0 0 0-.08.363c-.168.057-.009.226-.015.35-.002.05-.04.105-.045.16a.77.77 0 0 0 .068.37c.098.199.268.414.435.544.19.149.365.573.609.631.177.042.384-.104.543-.142.18-.043.397.01.571-.053.222-.08.127-.337.288-.45.105-.074.287-.01.406-.05.2-.07.34-.264.376-.46.016-.083.01-.145.039-.222.038-.102.111-.16.09-.293-.01-.061-.052-.12-.064-.186-.022-.114.002-.224 0-.337-.003-.2.017-.379-.078-.55-.38-.687-1.236-.929-1.974-.789-.18.034-.287.126-.442.207-.17.088-.139.166-.319.224-.08.026-.215.124-.215.223.002.116.005.051.012.17-.02.01-.021-.006-.03-.026m-7.645-.002a.248.248 0 0 1-.026.19c-.053.101-.112.063-.165.128a.636.636 0 0 0-.08.363c-.168.057-.008.226-.014.35-.003.05-.04.105-.045.16a.77.77 0 0 0 .068.37c.097.199.268.414.435.544.19.149.364.573.608.631.177.042.384-.104.543-.142.18-.043.398.01.571-.053.222-.08.128-.337.289-.45.104-.074.287-.01.406-.05a.61.61 0 0 0 .376-.46c.015-.083.01-.145.038-.222.039-.102.112-.16.09-.293-.01-.061-.051-.12-.064-.186-.022-.114.002-.224 0-.337-.002-.2.017-.379-.077-.55-.38-.687-1.237-.928-1.975-.789-.18.034-.287.126-.442.207-.17.088-.139.166-.318.224-.081.026-.216.124-.215.223.001.116.005.051.012.17-.02.01-.022-.005-.03-.026m-7.645-.002a.249.249 0 0 1-.026.19c-.053.101-.112.063-.165.128a.636.636 0 0 0-.08.363c-.168.057-.009.226-.014.35-.003.05-.04.105-.045.16a.77.77 0 0 0 .068.37c.097.199.268.414.435.544.19.149.364.573.608.631.177.042.384-.104.543-.142.18-.043.397.01.571-.053.222-.08.128-.337.288-.45.105-.074.288-.01.407-.05a.61.61 0 0 0 .376-.46c.015-.083.01-.145.038-.222.039-.102.111-.16.09-.293-.01-.061-.051-.12-.064-.186-.022-.114.002-.224 0-.337-.002-.2.017-.379-.078-.55-.38-.687-1.236-.928-1.974-.789-.18.034-.287.126-.442.207-.17.088-.139.166-.318.224-.082.026-.216.124-.215.223.001.116.005.051.011.17-.02.01-.021-.005-.03-.026m-7.645-.002a.249.249 0 0 1-.026.19c-.052.101-.112.063-.165.128a.636.636 0 0 0-.079.363c-.169.057-.01.226-.015.35-.002.05-.04.105-.045.16a.77.77 0 0 0 .068.37c.097.199.268.414.435.544.19.149.365.573.608.631.178.042.384-.104.543-.142.18-.043.398.01.572-.053.221-.08.127-.337.288-.45.104-.074.287-.01.406-.05a.61.61 0 0 0 .376-.46c.016-.083.01-.145.039-.222.038-.102.11-.16.09-.293-.01-.061-.052-.12-.065-.186-.022-.114.002-.224 0-.337-.002-.2.017-.379-.077-.55-.38-.687-1.237-.928-1.975-.789-.18.034-.286.126-.442.207-.17.088-.138.166-.318.224-.081.026-.216.124-.215.223.002.116.005.051.012.17-.02.01-.022-.005-.03-.026m68.959 7.652a.25.25 0 0 1-.026.19c-.053.1-.112.062-.165.128a.637.637 0 0 0-.08.362c-.168.058-.009.227-.014.35-.003.05-.04.105-.045.16a.77.77 0 0 0 .068.37c.097.2.268.414.435.545.19.148.365.572.608.63.177.043.384-.104.543-.142.18-.043.398.01.572-.053.221-.079.127-.337.288-.45.104-.074.287-.01.406-.05.2-.07.339-.263.376-.46.015-.083.01-.145.038-.221.039-.103.112-.16.09-.293-.01-.062-.051-.12-.064-.187-.022-.114.002-.223 0-.337-.002-.2.017-.379-.077-.55-.38-.687-1.237-.928-1.975-.789-.18.035-.287.126-.442.208-.17.087-.139.165-.318.223-.081.027-.216.124-.215.224.001.115.005.05.012.169-.02.01-.022-.005-.03-.026m-7.646-.001a.249.249 0 0 1-.026.19c-.052.1-.112.062-.165.128a.636.636 0 0 0-.079.362c-.169.058-.009.227-.015.35-.002.05-.04.105-.045.16-.01.12.017.266.068.37.097.2.268.414.435.545.19.148.365.572.609.63.177.043.383-.104.543-.142.18-.043.397.01.57-.053.222-.079.128-.337.289-.45.104-.074.287-.01.406-.05.2-.07.339-.263.376-.46.016-.083.01-.145.039-.221.038-.103.111-.16.09-.293-.01-.062-.052-.12-.064-.187-.022-.114.001-.223 0-.337-.003-.2.017-.379-.078-.55-.38-.687-1.236-.928-1.975-.789-.18.035-.286.126-.442.207-.17.088-.138.166-.318.224-.081.026-.216.124-.215.224.002.115.005.05.012.169-.02.01-.021-.005-.03-.026m-7.645-.001a.25.25 0 0 1-.026.19c-.052.1-.112.062-.165.128a.637.637 0 0 0-.079.362c-.169.058-.01.227-.015.35-.002.05-.04.105-.045.16a.77.77 0 0 0 .068.37c.097.2.268.414.435.545.19.148.365.572.608.63.178.043.384-.104.543-.142.18-.043.398.01.572-.053.221-.079.127-.337.288-.45.104-.074.287-.01.406-.05.2-.07.339-.263.376-.46.016-.083.01-.145.039-.221.038-.103.11-.16.09-.293-.01-.062-.052-.12-.065-.187-.022-.114.002-.223 0-.337-.002-.2.018-.379-.077-.55-.38-.687-1.236-.928-1.975-.789-.18.035-.286.126-.442.207-.17.088-.138.166-.318.224-.081.026-.216.124-.215.224.002.115.005.05.012.169-.02.01-.022-.005-.03-.026m-7.645-.001a.249.249 0 0 1-.026.19c-.053.1-.113.062-.165.128a.636.636 0 0 0-.08.362c-.168.058-.009.227-.015.35-.002.05-.04.105-.045.16-.01.12.018.266.068.37.097.2.268.414.435.545.19.148.365.572.609.63.177.043.384-.104.543-.142.18-.043.397.01.571-.053.222-.079.127-.337.288-.45.105-.074.287-.01.406-.05.2-.07.34-.263.376-.46.016-.083.01-.145.039-.221.038-.103.111-.16.09-.293-.01-.062-.051-.12-.064-.187-.022-.114.002-.223 0-.337-.003-.2.017-.379-.078-.55-.38-.687-1.236-.928-1.974-.789-.18.035-.287.126-.442.208-.17.087-.139.165-.319.223-.08.026-.216.124-.215.224.002.115.005.05.012.169-.02.01-.021-.005-.03-.026m-7.645-.001a.25.25 0 0 1-.026.19c-.052.1-.112.062-.165.128a.637.637 0 0 0-.079.362c-.169.058-.009.227-.015.35-.002.05-.04.105-.045.16a.77.77 0 0 0 .068.37c.097.2.268.414.435.545.19.148.365.572.609.63.177.043.383-.104.543-.142.18-.043.397.01.57-.053.223-.079.128-.337.289-.45.104-.074.287-.01.406-.05.2-.07.34-.263.376-.46.016-.083.01-.145.039-.221.038-.103.111-.16.09-.293-.01-.062-.052-.12-.064-.187-.022-.114.002-.223 0-.337-.003-.2.017-.379-.078-.55-.38-.687-1.236-.928-1.975-.789-.18.035-.286.126-.441.207-.17.088-.14.166-.319.224-.08.026-.216.124-.215.224.002.115.005.05.012.169-.02.01-.021-.005-.03-.026m-7.645-.001a.249.249 0 0 1-.026.19c-.053.1-.112.062-.165.128a.636.636 0 0 0-.08.362c-.168.058-.009.227-.014.35-.003.05-.041.105-.045.16-.01.12.017.266.068.37.097.2.268.414.435.545.19.148.364.572.608.63.177.043.384-.104.543-.142.18-.043.397.01.571-.053.222-.079.128-.337.288-.45.105-.074.287-.01.407-.05a.61.61 0 0 0 .376-.46c.015-.083.01-.145.038-.221.039-.103.111-.16.09-.293-.01-.062-.051-.12-.064-.187-.022-.114.002-.223 0-.337-.002-.2.017-.379-.078-.55-.38-.687-1.236-.928-1.974-.789-.18.035-.287.126-.442.208-.17.087-.139.165-.318.223-.082.027-.216.124-.215.224.001.115.005.05.011.169-.02.01-.021-.005-.03-.026m-7.644-.001a.25.25 0 0 1-.026.19c-.053.1-.113.062-.165.128a.637.637 0 0 0-.08.362c-.168.058-.009.227-.015.35-.002.05-.04.105-.044.16a.77.77 0 0 0 .067.37c.098.2.268.414.435.545.19.148.365.572.609.63.177.043.384-.104.543-.142.18-.043.397.01.571-.053.222-.079.128-.337.288-.45.105-.074.287-.01.406-.05.2-.07.34-.263.376-.46.016-.083.01-.145.039-.221.039-.103.111-.16.09-.293-.01-.062-.051-.12-.064-.187-.022-.114.002-.223 0-.337-.003-.2.017-.379-.078-.55-.38-.687-1.236-.928-1.974-.789-.18.035-.287.126-.442.207-.17.088-.139.166-.319.224-.08.026-.215.124-.214.224.001.115.004.05.011.169-.02.01-.021-.005-.03-.026m-7.645-.001a.249.249 0 0 1-.026.19c-.053.1-.112.062-.165.128a.636.636 0 0 0-.08.362c-.168.058-.008.227-.014.35-.003.05-.04.105-.045.16-.01.12.017.266.068.37.097.2.268.414.435.545.19.148.364.572.608.63.177.043.384-.104.543-.142.18-.043.398.01.571-.053.222-.079.128-.337.289-.45.104-.074.287-.01.406-.05.2-.07.339-.263.376-.46.015-.083.01-.145.038-.221.039-.103.112-.16.09-.293-.01-.062-.051-.12-.064-.187-.022-.114.002-.223 0-.337-.002-.2.017-.379-.077-.55-.38-.687-1.237-.928-1.975-.789-.18.035-.287.126-.442.208-.17.087-.139.165-.318.223-.081.026-.216.124-.215.224.001.115.005.05.012.169-.02.01-.022-.005-.03-.026m-7.645-.001a.249.249 0 0 1-.026.19c-.053.1-.112.062-.165.128a.636.636 0 0 0-.08.362c-.168.058-.009.227-.014.35-.003.05-.04.105-.045.16a.77.77 0 0 0 .068.37c.097.2.268.414.435.545.19.148.364.572.608.63.177.043.384-.104.543-.142.18-.043.397.01.571-.053.222-.079.128-.337.288-.45.105-.074.288-.01.407-.05.2-.07.339-.263.376-.46.015-.083.01-.145.038-.221.039-.103.111-.16.09-.293-.01-.062-.051-.12-.064-.187-.022-.114.002-.223 0-.337-.002-.2.017-.379-.078-.55-.38-.687-1.236-.928-1.974-.789-.18.035-.287.126-.442.208-.17.087-.139.165-.318.223-.082.026-.216.124-.215.224.001.115.005.05.011.169-.02.01-.021-.005-.03-.026M.495-10.43a.249.249 0 0 1-.026.19c-.052.1-.112.062-.165.128a.636.636 0 0 0-.079.362c-.169.058-.01.227-.015.35-.002.05-.04.105-.045.16a.77.77 0 0 0 .068.37c.097.2.268.414.435.545.19.148.365.572.608.63.178.043.384-.104.543-.142.18-.043.398.01.572-.053.221-.079.127-.337.288-.45.104-.074.287-.01.406-.05.2-.07.339-.263.376-.46.016-.083.01-.145.039-.221.038-.103.11-.16.09-.293-.01-.062-.052-.12-.065-.187-.022-.114.002-.223 0-.337-.002-.2.017-.379-.077-.55-.38-.687-1.237-.928-1.975-.789-.18.035-.286.126-.442.208-.17.087-.138.165-.318.223-.081.026-.216.124-.215.224.002.115.005.05.012.169-.02.01-.022-.005-.03-.026m68.959 7.651a.247.247 0 0 1-.026.19c-.052.1-.113.063-.165.128a.633.633 0 0 0-.08.362c-.168.058-.01.227-.014.35-.003.05-.04.105-.045.161-.01.12.017.266.068.37.097.198.268.413.435.544.19.149.365.572.608.631.177.042.384-.104.543-.143.18-.043.398.01.572-.052.221-.08.127-.337.288-.45.104-.075.287-.01.406-.051.2-.07.34-.263.376-.46.015-.082.01-.145.038-.221.038-.102.112-.16.09-.293-.01-.061-.05-.12-.064-.186-.021-.115.002-.224 0-.337-.002-.2.017-.38-.077-.55-.38-.688-1.237-.929-1.975-.79-.18.035-.287.127-.442.208-.17.088-.139.166-.318.223-.081.027-.216.124-.215.224.002.115.005.05.012.169-.02.01-.022-.005-.03-.025m-7.646-.002a.249.249 0 0 1-.026.19c-.052.1-.112.063-.165.128a.636.636 0 0 0-.079.362c-.169.058-.01.227-.015.35-.002.05-.04.105-.045.161-.01.12.017.266.068.37.097.198.268.413.435.544.19.149.365.572.609.631.177.042.383-.104.543-.143.18-.043.397.01.57-.052.222-.08.128-.337.289-.45.104-.075.287-.01.406-.051.2-.07.339-.263.376-.46.016-.082.01-.145.039-.221.038-.102.111-.16.09-.293-.01-.061-.052-.12-.064-.186-.022-.115.002-.224 0-.337-.003-.2.017-.38-.078-.55-.38-.688-1.236-.929-1.975-.79-.18.035-.286.127-.442.208-.17.088-.138.166-.318.223-.081.027-.216.124-.215.224.002.115.005.05.012.169-.02.01-.022-.005-.03-.025m-7.645-.002a.249.249 0 0 1-.026.19c-.052.1-.112.063-.165.128a.637.637 0 0 0-.079.362c-.169.058-.01.227-.015.35-.002.05-.04.105-.045.161a.77.77 0 0 0 .068.37c.097.198.268.413.435.544.19.149.365.572.608.631.178.042.384-.104.543-.143.18-.043.398.01.572-.052.221-.08.127-.337.288-.45.104-.075.287-.01.406-.051.2-.07.339-.263.376-.46.016-.082.01-.145.039-.221.038-.102.11-.16.09-.293-.01-.061-.052-.12-.065-.186-.022-.115.002-.224 0-.337-.002-.2.018-.38-.077-.55-.38-.688-1.236-.929-1.975-.79-.18.035-.286.127-.442.208-.17.088-.138.166-.318.223-.081.027-.216.124-.215.224.002.115.005.05.012.169-.02.01-.022-.005-.03-.025m-7.645-.002a.249.249 0 0 1-.026.19c-.053.1-.113.063-.165.128a.636.636 0 0 0-.08.362c-.168.058-.01.227-.015.35-.002.05-.04.105-.045.161-.01.12.017.266.068.37.097.198.268.413.435.544.19.149.365.572.609.631.177.042.384-.104.543-.143.18-.043.397.01.571-.052.222-.08.127-.337.288-.45.105-.075.287-.01.406-.051.2-.07.34-.263.376-.46.016-.082.01-.145.039-.221.038-.102.111-.16.09-.293-.01-.061-.052-.12-.064-.186-.022-.115.002-.224 0-.337-.003-.2.017-.38-.078-.55-.38-.688-1.236-.929-1.974-.79-.18.035-.287.127-.442.208-.17.088-.139.166-.319.223-.08.027-.215.124-.215.224.002.115.005.05.012.169-.02.01-.021-.005-.03-.025m-7.645-.002a.25.25 0 0 1-.026.19c-.052.1-.112.063-.165.128a.637.637 0 0 0-.079.362c-.169.058-.01.227-.015.35-.002.05-.04.105-.045.161a.77.77 0 0 0 .068.37c.097.198.268.413.435.544.19.149.365.572.609.631.177.042.383-.104.543-.143.18-.043.397.01.57-.052.223-.08.128-.337.289-.45.104-.075.287-.01.406-.051.2-.07.34-.263.376-.46.016-.082.01-.145.039-.22.038-.103.111-.161.09-.294-.01-.061-.052-.12-.064-.186-.022-.115.002-.224 0-.337-.003-.2.017-.38-.078-.55-.38-.688-1.236-.929-1.975-.79-.18.035-.286.127-.441.208-.17.088-.14.166-.319.223-.08.027-.216.124-.215.224.002.115.005.05.012.169-.02.01-.021-.005-.03-.025m-7.645-.002a.249.249 0 0 1-.026.19c-.053.1-.112.063-.165.128a.636.636 0 0 0-.08.362c-.168.058-.01.227-.014.35-.003.05-.041.105-.045.161-.01.12.017.266.068.37.097.198.268.413.435.544.19.149.364.572.608.631.177.042.384-.104.543-.143.18-.043.397.01.571-.052.222-.08.128-.337.288-.45.105-.075.287-.01.407-.051a.61.61 0 0 0 .376-.46c.015-.082.01-.145.038-.221.039-.102.111-.16.09-.293-.01-.061-.051-.12-.064-.186-.022-.115.002-.224 0-.337-.002-.2.017-.38-.078-.55-.38-.688-1.236-.929-1.974-.79-.18.035-.287.127-.442.208-.17.088-.139.166-.318.223-.082.027-.216.124-.215.224.001.115.005.05.011.169-.02.01-.021-.005-.03-.025m-7.644-.002a.25.25 0 0 1-.026.19c-.053.1-.113.063-.165.128a.637.637 0 0 0-.08.362c-.168.058-.01.227-.015.35-.002.05-.04.105-.044.161a.77.77 0 0 0 .067.37c.098.198.268.413.435.544.19.149.365.572.609.631.177.042.384-.104.543-.143.18-.043.397.01.571-.052.222-.08.128-.337.288-.45.105-.075.287-.01.406-.051.2-.07.34-.263.376-.46.016-.082.01-.145.039-.221.039-.102.111-.16.09-.293-.01-.061-.051-.12-.064-.186-.022-.115.002-.224 0-.337-.003-.2.017-.38-.078-.55-.38-.688-1.236-.929-1.974-.79-.18.035-.287.127-.442.208-.17.088-.139.166-.319.223-.08.027-.215.124-.214.224.001.115.004.05.011.169-.02.01-.021-.005-.03-.025m-7.645-.002a.249.249 0 0 1-.026.19c-.053.1-.112.063-.165.128a.636.636 0 0 0-.08.362c-.168.058-.009.227-.014.35-.003.05-.04.105-.045.161-.01.12.017.266.068.37.097.198.268.413.435.544.19.149.364.572.608.631.177.042.384-.104.543-.143.18-.043.398.01.571-.052.222-.08.128-.337.289-.45.104-.075.287-.01.406-.051.2-.07.339-.263.376-.46.015-.082.01-.145.038-.221.039-.102.112-.16.09-.293-.01-.061-.051-.12-.064-.186-.022-.115.002-.224 0-.337-.002-.2.017-.38-.077-.55-.38-.688-1.237-.929-1.975-.79-.18.035-.287.127-.442.208-.17.088-.139.166-.318.223-.081.027-.216.124-.215.224.001.115.005.05.012.169-.02.01-.022-.005-.03-.025m-7.645-.002a.249.249 0 0 1-.026.19c-.053.1-.112.063-.165.128a.636.636 0 0 0-.08.362c-.168.058-.009.227-.014.35-.003.05-.04.105-.045.161a.77.77 0 0 0 .068.37c.097.198.268.413.435.544.19.149.364.572.608.631.177.042.384-.104.543-.143.18-.043.397.01.571-.052.222-.08.128-.337.288-.45.105-.075.287-.01.407-.051a.61.61 0 0 0 .376-.46c.015-.082.01-.145.038-.221.039-.102.111-.16.09-.293-.01-.061-.051-.12-.064-.186-.022-.115.002-.224 0-.337-.002-.2.017-.38-.078-.55-.38-.688-1.236-.929-1.974-.79-.18.035-.287.127-.442.208-.17.088-.139.166-.318.223-.082.027-.216.124-.215.224.001.115.005.05.011.169-.02.01-.021-.005-.03-.025M.495-2.778a.247.247 0 0 1-.026.19c-.052.1-.113.063-.165.128a.632.632 0 0 0-.079.362c-.169.058-.01.227-.015.35-.002.05-.04.105-.045.161-.01.12.017.266.068.37.097.198.268.413.435.544.19.149.365.572.608.631.178.042.384-.104.543-.143.18-.043.398.01.572-.052.221-.08.127-.337.288-.45.104-.075.287-.01.406-.051.2-.07.34-.263.376-.46.016-.082.01-.145.039-.22.038-.103.11-.161.09-.294-.01-.061-.051-.12-.065-.186-.021-.115.002-.224 0-.337-.002-.2.017-.38-.077-.55-.38-.688-1.237-.929-1.975-.79-.18.035-.286.127-.442.208-.17.088-.138.166-.318.223-.081.027-.215.124-.215.224.002.115.005.05.012.169-.02.01-.022-.005-.03-.025"/></pattern><path class="st3" d="M246.773 308.63c0 48.38-39.233 87.597-87.613 87.597-48.377 0-87.594-39.217-87.594-87.596l.007-116.198h175.203l-.003 116.198z"/><path class="st4" d="M152.237 308.857c-4.653-1.224-14.144-2.875-15.246-4.224 19.839-.122 29.695-10.714 29.206-15.123-1.388-12.5-21.92-12.245-34.288-20.572-8.594-5.786-12.946-18.904-8.326-25.227 4.442-1.76 16.163-1.223 24.49-1.959 5.128-.451 34.044-.98 52.901 2.939 1.978.411.998 4.64 5.879 11.021 3.183 4.164 17.387 18.124 20.327 32.328-4.164-6.857-9.308-10.286-9.308-10.286 8.573 12.001 19.104 31.35 12.491 62.453-1.224-16.654-4.407-21.062-10.53-30.369 3.674 10.531 11.021 34.287-6.857 54.615 4.163-16.654-.98-22.777-3.676-28.898.272 10.644-1.223 36.735-22.775 45.797 3.43-8.082 5.632-18.614 3.183-27.43-4.408 17.634-19.102 32.328-42.37 31.104 9.797-4.408 19.103-18.613 19.594-23.267-13.69 11.135-37.227 16.163-51.432 10.531 13.47-3.674 25.226-9.552 30.614-16.163-20.817 8.57-42.859 1.714-48.493-2.94 48.004-2.45 53.391-28.41 46.043-36.491-3.078-3.388-8.877-2.694-11.387 1.101-2.211 3.344-3.608 4.993-8.45 7.225 5.571-4.653 6.185-9.98 5.45-12.735-1.225 3.796-3.43 5.082-6.49 6.06 2.082-1.775 4.101-4.039 3.122-7.653-2.326 2.573-3.674 4.103-7.47 5.633 1.959-1.408 5.633-5.877 4.042-7.959 8.817-.49 26.45.392 29.756.49z"/><path class="st5" d="M155.42 289.694c.448.885.796 2.02.43 3.184-12.889 4.046-23.696 4.715-41.33 4.346-13.712-.284-28.041 4.41-31.593 8.45.49-13.838 17.143-17.634 38.207-13.224 11.296 2.363 24.852.758 34.287-2.756z"/><path class="st6" d="M116.235 254.12c3.674 1.103 4.329 6.877-1.47 4.286-5.755-2.571-3.153-10.454-3.153-10.454-12.788.305-24.071 1.92-28.685 8.74-5.633 8.326-4.148 28.541 3.674 37.716-1.225-4.163-.98-11.878 4.653-13.96 2.58-.953 14.988-.284 21.307.98 8.573 1.715 19.593 4.408 20.328-2.45 12.736 1.225 23.2 5.394 23.756 12.247.735 9.06-20.219 9.809-22.437 9.835-19.028.214-37.32-3.836-37.812 7.308 7.098 1.372 16.293-1.341 24.002-1.225 7.792.12 16.96-.122 24.246.614-2.38-.626-8.694-1.716-11.388-3.796 18.749.613 31.472-8.084 29.022-15.43-3.852-11.552-22.532-10.286-33.552-19.838-7.236-6.271-8.617-18.605-7.838-23.267-1.837-.367-3.113-.906-4.775-.613-2.47.365-3.597 1.97-4.087 2.764.061 2.572 1.191 5.638 4.21 6.543z"/><path class="st7" d="M135.782 250.006c0 1.323 1.029 10.544 10.157 11.058 11.468.646 12.344-10.8 12.344-10.8s-2.325-2.852-10.182-3.086c-9.178-.273-12.319 1.505-12.319 2.828z"/><ellipse class="st8" cx="146.731" cy="253.806" rx="6.845" ry="6.146"/><circle class="st9" cx="146.406" cy="254.076" r="2.49"/><path class="st7" d="M169.936 252.929c-6.3-.385-11.14-3.566-20.27-6.523-7.453-2.415-13.225-1.643-15.218-.163-1.349 1-2.185 2.699-.192 4.564-2.894 1.607-6.622.064-8.23-2.7.065 3.022 3.022 6.365 9.066 4.692 2.588-.715 7.842-2.828 11.572-2.57 9.24.637 15.3 4.5 23.272 2.7zm-9.986-11.344c9.324.047 21.408 1.273 35.392 2.371 1.687-9.517 6.697-17.619 6.697-17.619 8.637 2.298 14.055-8.125 7.61-14.149-3.652-3.413-10.482-1.747-10.964 2.229-2.349-2.17-7.53-2.049-10.18 2.47-2.926 4.986 0 9.396 3.432 10.18-.722 1.928-1.933 2.835-5.722 2.47-4.89-.47-3.494-3.192-3.494-3.192s2.59-1.024 2.59-4.338c0-3.433-3.163-5-5.06-5-3.854 0-5.06 3.104-5.06 5 0 1.29.783 2.47.783 2.47-.843 1.567-3 3.137-6.085 3.011-2.951-.12-4.277-1.444-4.818-3.252 2.771 1.386 9.296-.483 9.396-6.506.18-10.641-14.31-8.284-14.517-4.698-.205-3.586-14.696-5.943-14.518 4.698.1 6.023 6.627 7.892 9.398 6.506-.543 1.808-1.869 3.133-4.82 3.252-3.084.126-5.24-1.444-6.084-3.011 0 0 .783-1.18.783-2.47 0-1.896-1.205-5-5.06-5-1.896 0-5.06 1.567-5.06 5 0 3.314 2.59 4.338 2.59 4.338s1.02 2.564-3.493 3.192c-3.535.493-5.001-.542-5.724-2.47 3.434-.784 6.358-5.194 3.434-10.18-2.65-4.519-7.831-4.64-10.181-2.47-.482-3.976-7.312-5.642-10.964-2.229-6.446 6.024-.77 16.701 7.612 14.15 0 0 4.979 7.657 6.666 17.175 13.981-1.097 26.097-1.881 35.42-1.928z"/><path class="st4" d="M159.772 213.097c.197-4.043-14.778-8.019-14.182 2.65.293 5.23 8.682 7.62 11.267 2.12-.664 8.481-3.716 9.732-7.804 10.415-5.204.87-9.49-2.632-9.712-5.063a3.773 3.773 0 0 0 1.942-3.298 3.777 3.777 0 1 0-3.777 3.778s.398 6.097-6.759 6.494c-6.6.367-9.277-3.181-9.873-6.163 4.078.265 8.765-3.384 5.566-8.88-3.048-5.235-8.88-3.578-10.47.199 1.126-4.506-5.385-8.318-9.41-4.572-6.81 6.339.92 14.321 5.832 11.664 0 0-.464-1.79-2.253-4.509 3.71 2.122 8.943 13.144 13.051 23.482 15.38-1.208 26.19-1.836 36.445-1.885 10.257.05 21.065.677 36.446 1.885 4.109-10.338 9.479-21.36 13.19-23.482-1.789 2.718-2.251 4.509-2.251 4.509 5.035 2.289 12.501-5.676 5.83-11.664-4.091-3.673-10.536.066-9.409 4.572-1.591-3.777-7.423-5.434-10.47-.199-3.2 5.496 1.488 9.145 5.566 8.88-.597 2.982-3.274 6.53-9.874 6.163-7.157-.397-6.758-6.494-6.758-6.494a3.777 3.777 0 1 0-3.778-3.778c0 1.419.784 2.653 1.942 3.298-.403 1.88-2.752 6.215-9.463 5.185-4.454-.683-7.389-2.056-8.05-10.537 2.583 5.5 10.973 3.11 11.264-2.12.597-10.669-14.248-6.693-14.048-2.65z"/><ellipse class="st10" cx="159.768" cy="208.074" rx="7.042" ry="8.691"/><ellipse class="st11" cx="159.748" cy="207.434" rx="6.461" ry="7.555"/><path class="st4" d="M186.87 247.911s3.697-5.788 9.21-6.468c5.51-.68 31.187-2.893 35.859-5.576 4.673-2.685 6.806-4.593 6.806-4.593s1.018 7.182-2.039 14.406c-3.059 7.224-7.515 16.992-19.102 20.726-11.588 3.734-30.734-18.495-30.734-18.495z"/><path class="st12" d="M180.722 263.145c3.467 2.095 10.806 4.022 13.539.057-.308-.102-5.81-.778-3.29-5.605 1.706-3.273 9.133-3.49 14.999-4 8.26-.717 11.153-3.053 11.857-3.769-5.963.013-7.756-3.495-7.756-3.495l1.605.004s2.32 2.018 8.214 1.586c8.342-.61 11.746-7.29 11.746-7.29l.42.76s-2.83 6.328-10.09 7.941c-1.135.252-1.808.37-2.75.433-.772 1.08-4.174 4.732-10.533 5.255-12.841 1.055-15.988 3.32-15.352 5.305.556 1.737 2.912 1.385 2.912 1.385-.414 2.838-3.775 6.065-7.34 5.903-4.148-.188-8.422-3.023-8.181-4.47z"/><path class="st7" d="M180.524 253.753c-.18.427.76 1.122 1.068.71.308-.412 5.517-8.598 14.419-11.7 8.21-2.861 25.695-3.347 32.338-5.165 6.643-1.816 10.082-5.245 10.082-5.245s-.12 20.336-15.088 29.284c-10.256 6.131-19.679 7.599-21.089 9.672-1.41 2.074-1.226 3.7-.978 4.31.246.608 1.052.836 1.097-.057.047-.894.958-3.093 3.099-3.794 2.14-.7 9.025-1.694 18.067-7.025 16.404-9.67 16.654-31.023 16.274-33.183-.304-1.725-1.073-2.252-1.073-2.252s-.964 5.963-14.464 7.47c-6.574.733-22.908 1.33-30.758 4.845-9.775 4.376-12.813 11.703-12.994 12.13zm67.249-126.685l-2.996-6.553-12.542-10.852-23.021-14.786-17.591-7.49-29.575-4.675-14.035.56-17.782 2.432-22.833 8.8-25.455 17.028-10.294 9.174-2.06 5.24-.187 18.343 4.307 23.209 10.67 13.66 151.6-2.617 9.172-14.228 3.183-32.938z"/><path class="st13" d="M158.534 122.792l10.643-5.215s-2.682-25.512-2.993-29.891c22.483 13.073 24.745 29.891 24.745 29.891s11.937 4.78 12.072 4.78c.145 0 7.968-4.78 7.968-4.78s-7.067-18.003-27.888-28.733c30.859 6.524 48.575 28.733 48.575 28.733l14.685 5.656 2.23-6.843s-34.182-35.953-90.074-35.953c-55.902 0-90 35.953-90 35.953l2.238 6.843 14.68-5.656s18.277-22.209 49.128-28.733c-20.818 10.73-28.452 28.733-28.452 28.733s7.643 5.071 7.777 5.071c.144 0 12.271-5.071 12.271-5.071s2.272-16.818 24.75-29.891c-.312 4.379-2.995 29.891-2.995 29.891l10.64 5.215zm.355 1.3c-5.365 0-9.711 4.206-9.711 9.397 0 2.254.828 4.337 2.206 5.948-1.208-.45-2.28-.673-3.602-.673-5.347 0-9.703 4.203-9.703 9.394 0 5.187 4.356 9.391 9.703 9.391 3.467 0 6.536-1.72 8.247-4.37-.093.79-.093 1.348-.093 2.068 0 5.178-4.35 11.339-9.711 11.339-4.321 0-8.33-2.732-9.58-6.516-1.264 3.784-5.362 6.516-9.681 6.516-5.357 0-9.735-6.161-9.735-11.339 0-.72 0-1.278-.066-2.067 1.711 2.648 4.773 4.37 8.247 4.37 5.35 0 9.693-4.205 9.693-9.392 0-5.19-4.343-9.394-9.693-9.394-1.32 0-2.395.223-3.605.673a9.14 9.14 0 0 0 2.206-5.948c0-5.19-4.348-9.397-9.713-9.397-5.36 0-9.698 4.206-9.698 9.397 0 2.254.82 4.337 2.207 5.948-1.21-.45-2.3-.673-3.602-.673-5.36 0-9.702 4.203-9.702 9.394 0 5.187 4.342 9.391 9.702 9.391 3.457 0 6.527-1.72 8.242-4.37-.035.87-.035 1.348-.035 2.068 0 5.178-4.413 11.339-9.77 11.339-4.333 0-8.285-2.732-9.55-6.516-1.249 3.784-4.587 6.521-8.924 6.521-5.348 0-7.819-5.551-9.142-10.491a46.843 46.843 0 0 1-.655-2.913c1.72 2.645 4.782 4.362 8.244 4.362 5.364 0 9.052-4.204 9.052-9.391 0-5.19-4.355-9.394-9.71-9.394-1.301 0-2.392.223-3.594.673a9.156 9.156 0 0 0 2.196-5.948c0-5.19-5.1-9.467-10.465-9.467h-5.628l12.265 68.038h166.312l12.207-67.968h-6.328c-5.36 0-9.71 4.206-9.71 9.397a9.1 9.1 0 0 0 2.204 5.948c-1.221-.45-2.291-.673-3.593-.673-5.37 0-9.707 4.203-9.707 9.394 0 5.187 3.575 9.872 8.939 9.872 3.462 0 6.513-1.712 8.24-4.36-.191.894-.331 1.466-.462 2.176-1.06 5.285-3.984 10.718-9.343 10.718-4.33 0-7.572-2.71-8.816-6.494-1.258 3.784-5.221 6.516-9.546 6.516-5.357 0-9.763-6.161-9.763-11.339 0-.72-.084-1.278-.038-2.067 1.712 2.648 4.771 4.37 8.242 4.37 5.357 0 9.704-4.205 9.704-9.392 0-5.19-4.347-9.394-9.704-9.394-1.307 0-2.386.223-3.6.673a9.141 9.141 0 0 0 2.2-5.948c0-5.19-4.344-9.397-9.7-9.397-5.35 0-9.7 4.206-9.7 9.397a9.08 9.08 0 0 0 2.21 5.948c-1.224-.45-2.304-.673-3.612-.673-5.355 0-9.698 4.203-9.698 9.394 0 5.187 4.343 9.391 9.698 9.391 3.468 0 6.525-1.72 8.246-4.37-.069.87-.069 1.515-.069 2.236 0 5.186-4.377 11.17-9.729 11.17-4.332 0-8.432-2.731-9.69-6.515-1.249 3.784-5.252 6.516-9.582 6.516-5.352 0-9.705-6.161-9.705-11.339 0-.72 0-1.11-.088-2.067 1.715 2.648 4.767 4.37 8.234 4.37 5.359 0 9.709-4.205 9.709-9.392 0-5.19-4.35-9.394-9.709-9.394-1.313 0-2.383.223-3.602.673a9.136 9.136 0 0 0 2.207-5.948c0-5.19-4.34-9.397-9.7-9.397z"/><path class="st14" d="M147.68 69.376c0-6.053 4.906-10.96 10.957-10.96 6.051 0 10.957 4.907 10.957 10.96 0 6.05-4.906 10.95-10.957 10.95-6.051 0-10.956-4.9-10.956-10.95z"/><path class="st15" d="M169.41 45.057v5.764h-7.74v7.758h-5.799V50.82h-7.792v-5.764h7.792v-7.732h5.8v7.732z"/><path class="st4" d="M148.54 67.608l7.912-.005v-8.235s1.257-.223 2.15-.22a11.55 11.55 0 0 1 2.024.218v8.237h7.952c.144.704.192 1.354.192 2.102 0 .735-.075 1.447-.216 2.14h-20.007a10.799 10.799 0 0 1-.215-2.155c0-.723.058-1.4.208-2.082z"/><path d="M304.892 249.46v-58.253h7.867v51.27h21.657v6.984h-29.524zm61.422 0l-1.768-3.977c-2.563 2.475-6.541 4.862-12.553 4.862-7.071 0-13.082-4.95-13.082-12.995 0-8.397 6.1-13.348 17.06-13.701l8.133-.265v-1.592c0-6.453-3.713-8.751-8.752-8.751-5.038 0-8.486 1.945-10.872 3.624l-2.917-5.304c5.215-3.712 9.9-4.773 15.293-4.773 8.751 0 15.115 3.713 15.115 14.497v14.055c0 9.9.266 12.818.796 14.32h-6.453zm-17.326-49.148c-2.563 0-4.596-2.033-4.596-4.685 0-2.652 2.033-4.685 4.596-4.685s4.597 2.033 4.597 4.685c0 2.652-2.033 4.685-4.597 4.685zm15.028 29.348l-7.515.265c-6.894.265-9.81 2.563-9.81 6.806 0 3.978 2.563 7.072 7.69 7.072 4.95 0 7.955-2.298 9.635-4.066V229.66zm.53-29.348c-2.563 0-4.596-2.033-4.596-4.685 0-2.652 2.033-4.685 4.596-4.685s4.597 2.033 4.597 4.685c0 2.652-2.033 4.685-4.597 4.685zm43.939 49.148v-25.37c0-4.861-.796-10.341-6.896-10.341-4.596 0-8.927 3.004-12.199 5.833v29.879h-7.778v-41.812h6.541l.972 4.773c4.774-3.535 9.017-5.834 14.851-5.834 6.1 0 12.376 4.155 12.376 14.85v28.023h-7.867zm27.265.885c-6.365 0-10.43-1.591-13.436-3.448l2.828-5.922c2.298 1.502 6.012 3.27 10.52 3.27 4.862 0 8.22-2.121 8.22-5.657 0-9.282-19.093-5.922-19.093-20.508 0-6.364 4.862-11.492 14.586-11.492 4.684 0 8.132.973 11.05 2.21v6.718c-3.095-1.326-6.366-2.563-10.785-2.563-4.067 0-7.16 1.414-7.16 4.773 0 8.398 19.447 6.1 19.447 20.067 0 8.927-7.514 12.552-16.177 12.552zm33.33 0c-6.364 0-10.43-1.591-13.436-3.448l2.829-5.922c2.298 1.502 6.01 3.27 10.519 3.27 4.862 0 8.221-2.121 8.221-5.657 0-9.282-19.094-5.922-19.094-20.508 0-6.364 4.863-11.492 14.586-11.492 4.685 0 8.132.973 11.049 2.21v6.718c-3.093-1.326-6.364-2.563-10.785-2.563-4.065 0-7.159 1.414-7.159 4.773 0 8.398 19.447 6.1 19.447 20.067 0 8.927-7.513 12.552-16.177 12.552zm36.594 0c-6.542 0-9.459-3.713-9.459-9.193v-27.227h-6.984v-6.276h6.984v-9.37l7.866-2.476v11.846h12.908l-2.564 6.276H504.08v24.574c0 3.448 1.327 5.039 4.068 5.039 2.826 0 5.567-1.502 7.247-2.74l2.298 5.304c-3.536 2.563-8.132 4.243-12.02 4.243zm39.246 2.298c-5.395 15.204-11.937 17.768-19.008 17.768-3.622 0-6.1-.707-8.398-1.68l1.946-6.01c1.77.883 3.711 1.414 6.276 1.414 4.862 0 9.369-3.802 12.465-14.497l-18.917-41.99h8.308l14.321 32.708h.266l10.959-32.707h7.78l-15.998 44.994zm42.742-37.392c-1.148-.619-2.651-.972-4.33-.972-2.475 0-6.1 1.856-8.751 4.596v30.586h-7.87v-41.812h6.543l.97 4.685c5.216-4.773 8.489-5.746 11.758-5.746 1.946 0 3.712.707 4.773 1.414l-3.093 7.249zm12.512 14.939c0 7.425 4.773 13.525 13.17 13.525 3.626 0 7.338-1.238 10.168-2.918l2.209 5.216c-3.626 2.74-9.017 4.332-13.88 4.332-13.613 0-19.889-10.697-19.889-22.365 0-12.021 6.985-21.392 17.681-21.392 10.963 0 17.325 8.575 17.325 21.57v2.032h-26.784zm9.37-17.237c-5.835 0-9.46 5.127-9.46 11.138h18.566c0-5.393-3.007-11.138-9.107-11.138zm33.163 37.392c-5.744 0-8.042-3.536-8.042-8.221v-55.248h7.78v51.8c0 3.625.88 4.597 3.269 4.597.529 0 1.327 0 2.474-.354l.971 5.746c-2.298 1.238-4.24 1.68-6.452 1.68zm23.849 0c-6.366 0-10.434-1.591-13.437-3.448l2.827-5.922c2.298 1.502 6.014 3.27 10.52 3.27 4.863 0 8.222-2.121 8.222-5.657 0-9.282-19.094-5.922-19.094-20.508 0-6.364 4.862-11.492 14.584-11.492 4.686 0 8.135.973 11.052 2.21v6.718c-3.097-1.326-6.366-2.563-10.786-2.563-4.064 0-7.16 1.414-7.16 4.773 0 8.398 19.446 6.1 19.446 20.067 0 8.927-7.513 12.552-16.174 12.552zm29.607-20.155c0 7.425 4.773 13.525 13.17 13.525 3.626 0 7.338-1.238 10.168-2.918l2.209 5.216c-3.626 2.74-9.017 4.332-13.88 4.332-13.613 0-19.889-10.697-19.889-22.365 0-12.021 6.985-21.392 17.681-21.392 10.962 0 17.325 8.575 17.325 21.57v2.032h-26.784zm9.37-17.237c-5.834 0-9.46 5.127-9.46 11.138h18.566c0-5.393-3.007-11.138-9.107-11.138zm52.131 36.507v-25.37c0-4.861-.794-10.341-6.894-10.341-4.596 0-8.927 3.004-12.196 5.833v29.879h-7.78v-41.812h6.54l.974 4.773c4.772-3.535 9.016-5.834 14.85-5.834 6.1 0 12.376 4.155 12.376 14.85v28.023h-7.87zm-439.513 89.274c-7.867 0-13.171-2.563-16.619-4.862l3.537-6.1c2.474 1.857 7.16 4.244 12.817 4.244 5.039 0 10.962-2.387 10.962-8.132 0-9.547-14.056-11.492-21.128-19.272-2.475-2.651-4.066-6.01-4.066-10.519 0-8.309 6.365-14.939 17.502-14.939 6.188 0 10.608 1.503 13.437 2.918l-.088 7.778c-3.536-2.21-8.22-3.889-12.995-3.889-5.392 0-9.9 2.21-9.9 7.337 0 12.2 25.635 12.11 25.635 29.79 0 9.458-8.31 15.646-19.094 15.646zm51.867-.884l-16.884-20.95h-.177v20.95h-7.778v-62.585h7.778v35.36h.177l14.674-14.587h9.724l-17.945 17.326 20.067 24.486h-9.636zm38.618 0l-1.768-3.978c-2.563 2.476-6.541 4.862-12.553 4.862-7.072 0-13.083-4.95-13.083-12.994 0-8.398 6.1-13.348 17.062-13.702l8.132-.265v-1.591c0-6.454-3.713-8.752-8.752-8.752-5.038 0-8.486 1.945-10.872 3.625l-2.917-5.304c5.215-3.713 9.9-4.774 15.293-4.774 8.751 0 15.115 3.714 15.115 14.498v14.055c0 9.9.265 12.818.796 14.32h-6.453zm-2.299-19.8l-7.514.264c-6.894.266-9.811 2.564-9.811 6.807 0 3.978 2.563 7.072 7.69 7.072 4.95 0 7.956-2.298 9.635-4.066v-10.078zm-7.071-26.431c-5.127 0-8.663-3.36-8.663-8.486 0-5.04 3.712-8.31 8.75-8.31 5.128 0 8.752 3.27 8.752 8.31 0 5.127-3.8 8.486-8.84 8.486zm0-13.26c-2.564 0-4.155 1.856-4.155 4.685 0 3.005 1.68 4.773 4.155 4.773 2.828 0 4.243-1.768 4.243-4.773 0-2.829-1.592-4.685-4.243-4.685zm51.266 59.491v-25.37c0-4.862-.795-10.342-6.895-10.342-4.597 0-8.928 3.005-12.199 5.834v29.878h-7.778v-41.812h6.54l.973 4.774c4.773-3.536 9.016-5.835 14.851-5.835 6.099 0 12.376 4.155 12.376 14.851v28.022h-7.868zm23.703-19.27c0 7.425 4.773 13.525 13.171 13.525 3.624 0 7.338-1.239 10.165-2.918l2.212 5.216c-3.625 2.74-9.018 4.331-13.88 4.331-13.613 0-19.89-10.696-19.89-22.364 0-12.022 6.983-21.393 17.68-21.393 10.961 0 17.327 8.575 17.327 21.57v2.033h-26.785zm9.37-17.238c-5.834 0-9.46 5.127-9.46 11.138h18.564c0-5.392-3.005-11.138-9.104-11.138z"/></svg>