<svg id="Lager_1" xmlns="http://www.w3.org/2000/svg" width="692.708" height="443.67" viewBox="0 0 692.708374 443.669952"><style>.st0{fill:#fce428}.st1{fill:#bd0d2e}</style><path class="st0" d="M322.48 128.165c7.293-3.153 14.961-5.531 22.601-7.15l-.355-102.249c-26.406.37-51.046 8.011-72.01 21.032l45.61 90.286c1.366-.647 2.72-1.298 4.155-1.92zm-14.551 7.569L249.232 58.1c-18.641 17.98-32.332 41.045-38.807 66.984l78.255 29.98c3.848-7.48 10.465-13.838 19.249-19.33zm98.817 1.302c17.74 36.366-23.063 35.48-6.208 63.864 7.828 13.185 32.501 30.387 56.678 45.032 18.774-23.887 30.003-53.984 30.003-86.721 0-28.59-8.56-55.169-23.228-77.357L402.888 131.4c1.494 1.715 2.841 3.55 3.858 5.636zm-12.824-12.662l50.758-65.832c-18.597-18.1-42.177-31.092-68.503-36.71l-19.433 97.341c14.158-1.451 27.458.085 37.178 5.201z"/><path class="st1" d="M373.039 239.93c-28.383-25.725-62.977-7.098-80.718-41.691-6.3-12.285-8.4-22.845-7.122-32.03l-78.9-9.708c-.018.904-.07 1.801-.07 2.71 0 77.591 62.904 140.494 140.496 140.494 21.504 0 41.87-4.848 60.089-13.483-9.33-16.72-21.201-34.899-33.775-46.293zm-37.108 46.59c-8.425 0-15.254-6.829-15.254-15.252 0-8.425 6.83-15.255 15.254-15.255 8.425 0 15.254 6.83 15.254 15.255 0 8.423-6.829 15.253-15.254 15.253zm-130.727 47.068c-12.97-5.686-20.701-7.882-28.3-7.882-7.991 0-13.101 2.843-13.101 7.236 0 13.311 45.462 9.563 45.462 40.32 0 16.928-14.411 26.75-34.326 26.75-15.59 0-23.32-4.008-32.23-8.53v-18.995c12.84 8.4 20.7 11.37 30.528 11.37 8.515 0 13.1-2.97 13.1-8.141 0-14.473-45.462-9.174-45.462-40.836 0-15.248 13.365-25.328 34.064-25.328 9.957 0 18.998 2.068 30.265 6.85v17.186zm60.526 18.479l39.436 46.782h-27.907l-35.374-41.354v41.354h-22.272v-88.134h22.272v39.932h.263l28.168-39.932h24.5l-29.086 41.352zm205.628 46.783h-18.736l-39.351-56.474v56.473h-22.273v-88.134h20.44l37.647 53.888v-53.888h22.273v88.134zm81.698 0h-67.203v-88.135h66.286v16.154h-44.015v18.48h42.05V361.5h-42.05v21.194h44.932v16.154zM148.378 281.283c3.546 0 5.649 2.82 5.649 5.881 0 2.251-.988 3.932-2.964 5.012 1.773 1.05 2.306 3.572 4.737 9.573h-4.737c-1.849-4.381-2.533-8.312-4.863-8.312h-1.241v8.312h-4.307v-20.466h7.726zm-3.419 8.402h2.28c1.19 0 2.355-.6 2.355-2.34 0-1.531-.836-2.311-2.457-2.311h-2.178v4.651zm25.895 12.065h-12.74v-20.467h12.564v3.75h-8.259v4.292h7.878v3.751h-7.878v4.922h8.435v3.751zm19.277-14.586c-2.203-1.26-4.332-1.89-6.458-1.89-4.687 0-6.334 3.42-6.334 6.452 0 3.63 2.407 6.032 5.979 6.032 1.064 0 1.595-.12 2.861-.72v-2.4h-2.506v-3.752h6.813v8.373c-1.292 1.59-4.483 2.76-7.27 2.76-6.028 0-10.31-4.351-10.31-10.473 0-6.242 4.256-10.534 10.412-10.534 2.583 0 5.09.69 6.813 1.68v4.472zm8.731 14.586h-4.307v-20.467h4.307v20.466zm13.028.27c-6.332 0-9.904-5.283-9.904-10.504 0-4.952 3.394-10.504 9.904-10.504s9.879 5.582 9.879 10.504c0 5.252-3.673 10.504-9.879 10.504zm0-16.746c-3.293 0-5.471 2.49-5.471 6.242 0 3.75 2.178 6.242 5.471 6.242 3.267 0 5.446-2.491 5.446-6.242 0-3.752-2.179-6.242-5.446-6.242zm30.13 16.476h-3.622l-9.55-13.116v13.115h-4.306v-20.466h3.951l9.22 12.513v-12.513h4.307v20.466z"/><path class="st1" d="M388.224 398.845h-23.98l-7.34-17.45h-39.967l-6.684 17.45h-23.588l36.038-88.154h25.816l39.705 88.154zm-52.286-67.085l-13.105 34.254h27.52l-14.415-34.254z"/></svg>